{
.appVersion = "3260";
.formatVersion = 3;
date = "2022-03-09 09:00:24 +0000";
familyName = "Inazuma Brush";
featurePrefixes = (
{
code = "languagesystem DFLT dflt;
";
name = Languagesystems;
}
);
fontMaster = (
{
id = m01;
metricValues = (
{
pos = 1200;
},
{
pos = 1000;
},
{
},
{
pos = -200;
}
);
name = Regular;
userData = {
GSCornerRadius = 15;
GSExtrudeAngle = 30;
GSExtrudeOffset = 15;
GSRoughenHorizontal = 15;
GSRoughenSegmentLength = 15;
GSRoughenVertical = 10;
};
}
);
glyphs = (
{
color = 2;
glyphname = A;
lastChange = "2023-06-30 08:38:36 +0000";
layers = (
{
layerId = m01;
shapes = (
{
closed = 1;
nodes = (
(108.4,710.5,o),
(29.8,675.8,o),
(41.1,616.3,cs),
(58.6,523.9,o),
(146.4,577,o),
(167.4,545,cs),
(188.2,513,o),
(165.7,363,o),
(167.4,301.6,cs),
(169.3,228.6,o),
(209.7,142.3,o),
(285.3,86.1,cs),
(361,30,o),
(446.1,0,o),
(528.5,7.1,cs),
(610.8,14.2,o),
(717.5,47,o),
(765.4,88.1,cs),
(813.3,129.1,o),
(917.4,241.1,o),
(943.7,368.8,cs),
(970.2,497.4,o),
(974.5,580,o),
(974.1,614.6,cs),
(973.4,649.2,o),
(973.6,757.8,o),
(985,770.3,cs),
(996.2,782.7,o),
(1041.9,787.3,o),
(1041.3,827.1,cs),
(1040.7,867,o),
(1005.8,951.8,o),
(926.3,949.8,cs),
(846.7,947.8,o),
(837.9,898.9,o),
(837.6,874.1,cs),
(837.1,826.2,o),
(862.6,801.9,o),
(869.2,774.8,cs),
(873.1,759.6,o),
(873.7,691.2,o),
(869.2,642.2,cs),
(864.8,593.3,o),
(806.7,338,o),
(733.3,274.8,cs),
(660,211.5,o),
(604.7,172.9,o),
(504.8,173.5,cs),
(404.9,174.3,o),
(318.6,225.8,o),
(289.2,306.8,cs),
(259.9,387.6,o),
(277.5,472.6,o),
(298.9,528.1,cs),
(320.3,583.6,o),
(359.3,662.6,o),
(358.6,688,cs),
(356.4,790.6,o),
(250.3,789.8,o),
(160.6,739.7,cs)
);
},
{
closed = 1;
nodes = (
(466.9,952.8,o),
(475.5,874.1,o),
(508.7,837.3,cs),
(550.4,791.3,o),
(618,779.5,o),
(632.5,800.9,cs),
(652.2,829.9,o),
(628.2,912.7,o),
(596.5,945,cs),
(552.4,989.9,o),
(515.8,1000,o),
(489.5,974.7,cs)
);
},
{
closed = 1;
nodes = (
(436.6,637,o),
(495.2,581.3,o),
(535.4,550.7,cs),
(571.3,523.3,o),
(644.1,486.7,o),
(649.4,511,cs),
(658.8,553.8,o),
(637.4,629.4,o),
(598,656.1,cs),
(558.8,683,o),
(487.5,694.9,o),
(465.7,670.3,cs)
);
}
);
width = 1100;
}
);
unicode = (65,97);
},
{
color = 2;
glyphname = B;
lastChange = "2023-06-30 08:38:40 +0000";
layers = (
{
layerId = m01;
shapes = (
{
closed = 1;
nodes = (
(407.4,971.3,o),
(96,663.3,o),
(52.8,587.8,cs),
(9.7,512.3,o),
(26.7,362.7,o),
(111.3,362.7,cs),
(196.2,362.7,o),
(190.1,456.7,o),
(208.5,484.4,cs),
(226.9,512.3,o),
(381.1,811.2,o),
(476.7,811.2,cs),
(572.1,811.2,o),
(795.8,487.6,o),
(815.7,439.9,cs),
(835.7,392.1,o),
(812.7,356.5,o),
(824.9,330.3,cs),
(837.2,304.2,o),
(862,210.2,o),
(1005.3,210.2,cs),
(1056.5,210.2,o),
(1076.1,270.3,o),
(1060.7,325.8,cs),
(1045.3,381.3,o),
(1018.9,436.7,o),
(989.8,473.7,cs),
(960.7,510.6,o),
(838.8,640,o),
(797.1,687.9,cs),
(755.6,735.8,o),
(601.5,908.4,o),
(567.6,943.8,cs),
(543.5,968.9,o),
(512.2,976.2,o),
(478.3,974.5,cs)
);
},
{
closed = 1;
nodes = (
(379.6,555.3,o),
(313.9,565.6,o),
(261.4,493.1,cs),
(248.9,476,o),
(244.8,459.4,o),
(244.8,434,cs),
(244.8,408.6,o),
(278.3,382.1,o),
(293.4,372.7,cs),
(308.5,363.4,o),
(336.4,329.9,o),
(360.6,329.9,cs),
(384.8,329.9,o),
(402.3,380.6,o),
(446.3,403.9,cs),
(490.2,427.2,o),
(639.5,444.3,o),
(639.5,503.5,cs),
(639.5,562.5,o),
(519.7,555.3,o),
(444.3,555.3,cs)
);
},
{
closed = 1;
nodes = (
(465.8,372.3,o),
(379,291.2,o),
(379,190.4,cs),
(379,89.8,o),
(459,23.8,o),
(544.7,23.8,cs),
(630.4,23.8,o),
(703.1,93.2,o),
(703.1,145.3,cs),
(703.1,168.5,o),
(679.5,162.8,o),
(665,161.5,cs),
(655.9,160.7,o),
(613,137.3,o),
(580.6,137.3,cs),
(548.1,137.3,o),
(514.6,164.4,o),
(514.6,185.9,cs),
(514.6,227.1,o),
(615.3,277.3,o),
(615.3,307.5,cs),
(615.3,337.6,o),
(571.2,372.3,o),
(514.6,372.3,cs)
);
}
);
width = 1100;
}
);
unicode = (66,98);
},
{
glyphname = C;
lastChange = "2023-06-30 08:38:44 +0000";
layers = (
{
layerId = m01;
shapes = (
{
closed = 1;
nodes = (
(370,575.2,o),
(527.1,478.6,o),
(527.1,466,cs),
(527.1,453.4,o),
(445.5,411.3,o),
(445.5,318.3,cs),
(445.5,279.8,o),
(455.8,285.6,o),
(455.8,266.8,cs),
(455.8,248.1,o),
(469.5,224.8,o),
(489.5,266.3,cs),
(495.1,278.2,o),
(512.5,296.7,o),
(557.9,345,cs),
(603.2,393.3,o),
(660.3,430.2,o),
(674.3,430.2,cs),
(682.6,430.2,o),
(685.6,425.6,o),
(695,425.6,cs),
(704.4,425.6,o),
(738.4,450.7,o),
(738.4,461.8,cs),
(738.4,486.4,o),
(721.5,518.1,o),
(703.5,537.6,cs),
(685.6,557,o),
(660,582.1,o),
(681.9,564.1,cs),
(716.7,535.4,o),
(703.7,554.9,o),
(688.6,570.8,cs),
(673.5,586.7,o),
(660.8,598.6,o),
(640.4,614.4,cs),
(620.1,630.1,o),
(598.2,636.6,o),
(569.8,671,cs),
(545.8,700,o),
(501.2,763.7,o),
(501.2,801.3,cs),
(501.2,822.8,o),
(478.8,846,o),
(467.8,846,cs),
(456.7,846,o),
(449.7,837.5,o),
(442.3,837.5,cs),
(434.9,837.5,o),
(427.8,854.5,o),
(412.8,854.5,cs),
(397.8,854.5,o),
(370,830.7,o),
(370,763.4,cs)
);
},
{
closed = 1;
nodes = (
(492.1,745.1,o),
(486.3,769.8,o),
(488.9,771.7,cs),
(491.2,773.4,o),
(499,756.5,o),
(516.3,730.6,cs),
(553.3,675.3,o),
(545.8,671,o),
(511.8,717.9,cs)
);
}
);
width = 1100;
}
);
unicode = (67,99);
},
{
glyphname = D;
lastChange = "2023-06-30 08:38:52 +0000";
layers = (
{
layerId = m01;
shapes = (
{
closed = 1;
nodes = (
(364.1,902.6,o),
(270.5,840.8,o),
(231.4,785.9,cs),
(192.3,730.9,o),
(207.2,736.7,o),
(246.9,768,cs),
(306.8,815.4,o),
(315,810.3,o),
(273.1,762.2,cs),
(246.4,731.6,o),
(242.1,693.4,o),
(229.6,643.4,cs),
(216.3,589.9,o),
(201.9,586.4,o),
(201.9,460.7,cs),
(201.9,414.6,o),
(207,386.1,o),
(227.5,344.3,cs),
(255.7,286.5,o),
(246.5,273.5,o),
(220.9,323,cs),
(184.3,393.7,o),
(179.2,368.4,o),
(211.2,310.6,cs),
(243.2,252.7,o),
(331.4,97.9,o),
(545.4,97.9,cs),
(776,97.9,o),
(909.6,308.3,o),
(909.6,469.3,cs),
(909.6,630.3,o),
(813.6,699.7,o),
(766.9,745.8,cs),
(720.2,791.8,o),
(655.8,801.1,o),
(643,801.1,cs),
(630.1,801.1,o),
(576,743.9,o),
(580.2,736.9,cs),
(584.2,729.8,o),
(758.8,698.8,o),
(758.8,536.4,cs),
(758.8,479.7,o),
(726.8,261.2,o),
(557.4,261.2,cs),
(513.6,261.2,o),
(486.1,267.4,o),
(431.9,309.4,cs),
(377.6,351.5,o),
(371.8,372.3,o),
(371.8,383.5,cs),
(371.8,389.6,o),
(388.2,405.2,o),
(405.4,422.6,cs),
(419.9,437.3,o),
(435,454.4,o),
(440.7,454.4,cs),
(446.3,454.4,o),
(501.4,416.2,o),
(542.9,416.2,cs),
(584.4,416.2,o),
(646.1,461.2,o),
(646.1,490.5,cs),
(646.1,520,o),
(603.5,533.9,o),
(583.2,537,cs),
(562.7,540.2,o),
(542.4,549.9,o),
(534.9,549.9,cs),
(520.1,549.9,o),
(520.1,523.2,o),
(513.7,523.2,cs),
(507.3,523.2,o),
(505.6,534.6,o),
(505.6,586.6,cs),
(505.6,638.4,o),
(503.7,646.4,o),
(498.7,654.3,cs),
(493.8,662.2,o),
(473.9,666.3,o),
(473.9,676.8,cs),
(473.9,698.1,o),
(522.4,692.2,o),
(540.9,717.1,cs),
(551.5,731.5,o),
(558.2,742,o),
(558.2,759.9,cs),
(558.2,777.8,o),
(537.8,805.5,o),
(524.8,828.2,cs),
(511.9,850.7,o),
(509.2,869.3,o),
(496.2,883.3,cs),
(483.1,897.1,o),
(468.8,902.6,o),
(436.4,902.6,cs)
);
},
{
closed = 1;
nodes = (
(870.8,664,o),
(879,638.9,o),
(885.3,628.4,cs),
(891.4,618.1,o),
(896.9,603.8,o),
(908,609.1,cs),
(919.3,614.5,o),
(916.4,642.2,o),
(910.4,652.8,cs),
(904.5,663.3,o),
(891.1,674.8,o),
(881.3,669.6,cs)
);
}
);
width = 1100;
}
);
unicode = (68,100);
},
{
glyphname = E;
lastChange = "2023-06-30 08:38:56 +0000";
layers = (
{
layerId = m01;
shapes = (
{
closed = 1;
nodes = (
(370.7,882.9,o),
(381.5,816.2,o),
(375.2,808.3,cs),
(368.9,800.8,o),
(323.7,802.6,o),
(289.2,803,cs),
(254.7,803.4,o),
(233.6,813,o),
(211.4,816.4,cs),
(189.4,819.9,o),
(139.5,763.3,o),
(140,735.3,cs),
(140.5,707.2,o),
(176.5,683.8,o),
(192,675.4,cs),
(207.3,667.2,o),
(214,647.3,o),
(258,646,cs),
(301.8,644.6,o),
(388.2,672.8,o),
(392.3,667.2,cs),
(396.2,661.8,o),
(396.2,589.9,o),
(391.8,585.5,cs),
(386.8,580.7,o),
(312.7,555.8,o),
(297.8,545.5,cs),
(286.4,537.6,o),
(287.6,504.5,o),
(296.5,491,cs),
(316.6,460.9,o),
(352.5,419.9,o),
(392.3,420.3,cs),
(432.1,420.6,o),
(437.1,462.5,o),
(454.4,488.9,cs),
(463.4,502.9,o),
(492.1,502.4,o),
(525.8,502.9,cs),
(559.7,503.5,o),
(629,491.5,o),
(666.2,451,cs),
(703.2,410.4,o),
(718.5,381.7,o),
(718.1,315.7,cs),
(717.7,249.7,o),
(703.7,183.7,o),
(645.3,152,cs),
(587,120.3,o),
(536.4,100.9,o),
(457.5,100.9,cs),
(378.7,100.9,o),
(330.4,128.5,o),
(309.6,143.1,cs),
(288.7,157.8,o),
(240.4,193.5,o),
(231.4,187.7,cs),
(222.1,181.9,o),
(248,116.2,o),
(264.7,100,cs),
(281.6,83.8,o),
(286.2,79.4,o),
(283.8,76.6,cs),
(281,73.3,o),
(247.1,88.8,o),
(279.8,57.4,cs),
(310.3,27.6,o),
(350.6,-24.8,o),
(481.9,-21.7,cs),
(613.1,-18.6,o),
(729.5,7,o),
(796.9,99,cs),
(864.2,190.9,o),
(873.2,234.1,o),
(874.3,314.7,cs),
(875.2,395.3,o),
(835,475.9,o),
(791.4,512.8,cs),
(748,549.7,o),
(662.6,605.8,o),
(577,606.3,cs),
(527.3,606.6,o),
(473.2,592.3,o),
(471.1,602.2,cs),
(468.8,612.2,o),
(470.7,667.7,o),
(487.4,677.6,cs),
(504.1,687.6,o),
(614.1,708.8,o),
(643.5,707.7,cs),
(672.9,706.8,o),
(676.9,692.1,o),
(702.4,692.6,cs),
(727.7,693.3,o),
(789.1,711.9,o),
(807.3,740.7,cs),
(825.4,769.2,o),
(820.4,809.3,o),
(805.5,840.9,cs),
(790.6,872.5,o),
(786,885.5,o),
(769.7,900.6,cs),
(753.4,915.7,o),
(714.5,921.4,o),
(689.2,932.9,cs),
(663.9,944.4,o),
(598.7,986,o),
(575.7,1000.5,cs),
(532.9,1027.5,o),
(457.6,1021,o),
(416.7,956.1,cs)
);
},
{
closed = 1;
nodes = (
(508.6,810.1,o),
(532.7,858.8,o),
(559.7,881.3,cs),
(586.9,903.7,o),
(645.5,928.3,o),
(692.1,884.4,cs),
(734.9,843.7,o),
(730.2,818.4,o),
(717.2,810.3,cs),
(698.1,798.5,o),
(650.9,798.5,o),
(623.4,798.5,cs),
(595.9,798.5,o),
(514.2,798.3,o),
(511.6,803.8,cs)
);
},
{
closed = 1;
nodes = (
(356.3,299.3,o),
(360.6,247.4,o),
(363.1,224,cs),
(365.6,200.6,o),
(389.3,174,o),
(424.3,174.1,cs),
(466.8,174.2,o),
(491.9,191.4,o),
(491,222.2,cs),
(490.3,253,o),
(466.4,277.7,o),
(453,279.4,cs),
(439.6,281.2,o),
(400.1,276.5,o),
(388.6,284.4,cs),
(377.1,292.4,o),
(362.8,307.6,o),
(360.2,304.2,cs)
);
},
{
closed = 1;
nodes = (
(523.1,356.2,o),
(510.6,349.2,o),
(501.2,347.4,cs),
(492.1,345.5,o),
(471,340.3,o),
(471.3,334.9,cs),
(471.6,328.4,o),
(501.5,311.8,o),
(509.6,303.3,cs),
(518.2,294.1,o),
(533.7,278,o),
(552.1,278.5,cs),
(572.7,279.1,o),
(587,289.8,o),
(587.2,315.1,cs),
(587.5,337.1,o),
(570.4,355.9,o),
(540.3,356.1,cs)
);
}
);
width = 1100;
}
);
unicode = (69,101);
},
{
glyphname = F;
lastChange = "2023-06-30 08:39:00 +0000";
layers = (
{
layerId = m01;
shapes = (
{
closed = 1;
nodes = (
(361.5,948.9,o),
(363.8,925.7,o),
(354.5,925.7,cs),
(345.1,925.7,o),
(326.4,943.1,o),
(313.5,943.1,cs),
(300.6,943.1,o),
(286.6,926.6,o),
(283.1,918.2,cs),
(279.7,909.9,o),
(280.9,890.9,o),
(275,888.3,cs),
(269.1,885.8,o),
(269.3,874.1,o),
(278.2,867.1,cs),
(287.1,860.1,o),
(287.2,850.2,o),
(282.3,846,cs),
(277.4,841.7,o),
(275.5,824.3,o),
(304.2,798.7,cs),
(332.9,773.1,o),
(380.8,760.4,o),
(450.8,760.4,cs),
(520.7,760.4,o),
(599.2,767.2,o),
(633.1,796.7,cs),
(643.8,806,o),
(644.2,798.2,o),
(685.5,803.8,cs),
(726.8,809.3,o),
(737.6,814.4,o),
(749.8,833,cs),
(762.1,851.5,o),
(771.9,858.1,o),
(771.9,867.3,cs),
(771.9,876.6,o),
(746.9,901.6,o),
(723.4,914.4,cs),
(699.8,927.2,o),
(660.9,935.8,o),
(614.2,941.7,cs),
(567.5,947.6,o),
(511.3,948.9,o),
(428.5,948.9,cs)
);
},
{
closed = 1;
nodes = (
(198.4,660.1,o),
(135.2,659.3,o),
(135.2,595.4,cs),
(135.2,588.5,o),
(130,583.8,o),
(130,578.8,cs),
(130,573.8,o),
(144.1,567.1,o),
(144.1,558.2,cs),
(144.1,549.2,o),
(135.2,548.8,o),
(135.2,544.2,cs),
(135.2,539.5,o),
(143.5,532.4,o),
(149.6,526.4,cs),
(155.7,520.4,o),
(167.2,522.1,o),
(170.8,518.2,cs),
(174.5,514.4,o),
(172.1,513.1,o),
(173.4,507.8,cs),
(174.7,502.5,o),
(192.5,501.2,o),
(213.4,499.6,cs),
(234.3,498,o),
(254.4,497.5,o),
(352,497.5,cs),
(449.7,497.5,o),
(576.6,505.5,o),
(669.8,522.8,cs),
(762.9,540.1,o),
(794,547.2,o),
(836.5,564.5,cs),
(878.9,581.9,o),
(922.5,626,o),
(922.5,646.9,cs),
(922.5,667.8,o),
(884.3,677.3,o),
(827,679.2,cs),
(769.8,681.2,o),
(739.5,684.8,o),
(668.6,684.8,cs),
(597.7,684.8,o),
(539.6,675.2,o),
(510.5,668.8,cs),
(481.4,662.3,o),
(438.1,660.1,o),
(311.9,660.1,c)
);
},
{
closed = 1;
nodes = (
(301.5,427.4,o),
(256.7,391.4,o),
(256.7,327,cs),
(256.7,301.8,o),
(268.8,297.2,o),
(268.8,280.4,cs),
(268.8,263.6,o),
(302.2,240.2,o),
(347.5,240.2,cs),
(379.9,240.2,o),
(409.1,270.5,o),
(426.7,303.1,cs),
(444.2,335.6,o),
(467.9,365.8,o),
(467.9,372.5,cs),
(467.9,379.2,o),
(453.9,387.4,o),
(454,397.2,cs),
(454.1,403.7,o),
(451.5,409.1,o),
(448.2,409.1,cs),
(444.9,409.1,o),
(439,405.9,o),
(419.2,405.9,cs),
(371.8,405.9,o),
(366.7,427.4,o),
(328.4,427.4,cs)
);
},
{
closed = 1;
nodes = (
(703.8,413.1,o),
(668.1,395.3,o),
(668.1,337.2,cs),
(668.1,301,o),
(690.2,285.3,o),
(712.5,285.3,cs),
(745.4,285.3,o),
(773.1,327.3,o),
(779.1,327.3,cs),
(790.3,327.3,o),
(817.9,290.5,o),
(817.9,261.8,cs),
(817.9,233.1,o),
(794.2,202.7,o),
(753.9,163,cs),
(713.7,123.2,o),
(659.9,77.8,o),
(659.9,63.6,cs),
(659.9,49.4,o),
(680.6,48.5,o),
(712.8,48.5,cs),
(797.3,48.5,o),
(911.6,101.2,o),
(911.6,251.3,cs),
(911.6,337.1,o),
(887,343.1,o),
(853.7,373.9,cs),
(820.3,404.7,o),
(772.3,413.1,o),
(740.2,413.1,c)
);
},
{
closed = 1;
nodes = (
(853,363.7,o),
(873.8,349.1,o),
(881.9,335.3,cs),
(890,321.6,o),
(903.8,291.1,o),
(895.8,287.9,cs),
(887.7,284.7,o),
(881.6,301,o),
(874.6,316.4,cs),
(867.6,331.9,o),
(840.8,361.1,o),
(849.9,361.1,c)
);
},
{
closed = 1;
nodes = (
(547.1,832.3,o),
(519.1,820.2,o),
(519.1,752.1,cs),
(519.1,683.9,o),
(519.4,506.4,o),
(519.4,405.2,cs),
(519.4,178.5,o),
(566.8,240.7,o),
(566.8,189,cs),
(566.8,167.8,o),
(566.5,156.1,o),
(571.7,156.1,cs),
(576.8,156.1,o),
(605.5,212,o),
(611,257,cs),
(616.6,302,o),
(630.4,405.1,o),
(630.4,476.3,cs),
(630.4,547.6,o),
(637.7,600,o),
(637.7,711.5,cs),
(637.7,823.1,o),
(612.8,832.3,o),
(580.5,832.3,cs)
);
}
);
width = 1100;
}
);
unicode = (70,102);
},
{
glyphname = G;
lastChange = "2023-06-30 08:39:03 +0000";
layers = (
{
layerId = m01;
shapes = (
{
closed = 1;
nodes = (
(428.1,944.2,o),
(360.6,948.6,o),
(345.7,970.2,cs),
(330.7,992,o),
(323.9,1017.6,o),
(319.1,1010.2,cs),
(314.4,1002.9,o),
(304.8,994,o),
(301.5,1009.6,cs),
(298,1025.3,o),
(268.8,990,o),
(269.5,958,cs),
(270.2,926,o),
(291.2,901,o),
(317.7,889.5,cs),
(344.3,877.8,o),
(394,868.3,o),
(441.4,867.7,cs),
(489,867,o),
(554.5,869.8,o),
(553.8,847.9,cs),
(553.1,826.2,o),
(522,818,o),
(487.3,807.8,cs),
(452.6,797.6,o),
(370.3,767.1,o),
(352.7,756.9,cs),
(335,746.7,o),
(277.9,727.5,o),
(261.7,709,cs),
(245.3,690.6,o),
(257.7,443.8,o),
(244.4,435.8,cs),
(229.4,426.9,o),
(150.7,410.5,o),
(130.3,411.2,cs),
(109.7,411.9,o),
(40.9,403.5,o),
(40,382.3,cs),
(39.4,361.3,o),
(72.7,356.4,o),
(88.3,349.7,cs),
(103.9,342.8,o),
(114.1,330,o),
(140.1,331.3,cs),
(165.9,332.6,o),
(187.4,341.5,o),
(203.8,351.7,cs),
(220.2,361.9,o),
(243.2,370.9,o),
(250.1,362.6,cs),
(256.8,354.5,o),
(260.9,165.6,o),
(265,141.1,cs),
(269.1,116.7,o),
(281.4,105.6,o),
(286.1,90.8,cs),
(290.9,76,o),
(292.9,46.7,o),
(309.3,29.7,cs),
(325.6,12.7,o),
(330.2,1.7,o),
(358.2,-3.6,cs),
(386,-9.1,o),
(414.5,-6.4,o),
(425.5,-9.7,cs),
(436.3,-13.2,o),
(455.3,-22,o),
(487.9,-23.4,cs),
(520.6,-24.7,o),
(527.1,-24.7,o),
(491.7,-0.9,cs),
(456.2,22.9,o),
(426.1,38.3,o),
(413.3,97.4,cs),
(400.3,156.6,o),
(396.2,387.4,o),
(407.2,400.3,c),
(416.8,411,o),
(558,444.3,o),
(565.4,430.9,cs),
(573,417.3,o),
(550,268.8,o),
(551.5,230.8,cs),
(552.8,192.7,o),
(579.3,137.8,o),
(575.2,124.8,cs),
(571.2,112,o),
(546.4,84.9,o),
(615.3,84,cs),
(661.5,83.3,o),
(793.2,134.3,o),
(832,143.9,cs),
(870.8,153.3,o),
(927.9,163.4,o),
(947.6,194.7,cs),
(967.4,226.1,o),
(1002,246.4,o),
(1004.8,312.3,cs),
(1007.5,378.3,o),
(1005.3,407.4,o),
(949.6,442.1,cs),
(894,476.8,o),
(855.8,496.6,o),
(822.5,503.4,cs),
(789.3,510.1,o),
(736.9,503.4,o),
(736.3,511.5,cs),
(735,527.6,o),
(758,556.3,o),
(758,573.3,cs),
(758,590.4,o),
(739,590.4,o),
(739.7,606.6,cs),
(740.4,623,o),
(735.7,650.1,o),
(690.2,650.7,cs),
(644.5,651.5,o),
(609.6,618.3,o),
(599.6,576.1,cs),
(589.5,533.9,o),
(591.6,510.9,o),
(586.1,504,cs),
(580.8,497.2,o),
(537,499.6,o),
(503.8,491.5,cs),
(459.9,480.9,o),
(425,463.3,o),
(416.8,474.9,cs),
(408.7,486.4,o),
(425.2,618,o),
(459.7,660.3,cs),
(488.4,695.4,o),
(549.7,754.9,o),
(669,787.4,cs),
(756.6,811.3,o),
(806.3,813.3,o),
(806.3,841.8,cs),
(806.3,870.4,o),
(758,882.5,o),
(733.4,903.6,cs),
(709,924.8,o),
(691.4,953,o),
(671.1,955.3,cs),
(650.8,957.5,o),
(543.7,943.2,o),
(478.8,943.8,cs)
);
},
{
closed = 1;
nodes = (
(756,442.7,o),
(785,412,o),
(799.3,401.1,cs),
(813.7,390.2,o),
(851.6,376,o),
(854.9,353.6,cs),
(858.4,331.2,o),
(829.9,296.4,o),
(821.7,272,cs),
(813.7,247.6,o),
(809.6,221.1,o),
(790.4,200,cs),
(771.3,178.9,o),
(746.8,176.9,o),
(727.1,168,cs),
(707.5,159.1,o),
(696.7,147,o),
(670.9,147,cs),
(645,147,o),
(636.8,155.8,o),
(650.5,202.1,cs),
(664,248.3,o),
(703.1,365.8,o),
(713.6,391.6,cs),
(723.6,416.2,o),
(715.2,439.5,o),
(737.3,441.3,cs)
);
},
{
closed = 1;
nodes = (
(515.6,797.1,o),
(548.7,808.4,o),
(552.9,802.3,cs),
(557.1,796.3,o),
(521.9,777.4,o),
(510.5,773.3,cs),
(503,770.5,o),
(419.3,740,o),
(417.9,742.8,cs),
(416.6,745.3,o),
(495.2,784.8,o),
(502.5,789.2,cs)
);
}
);
width = 1100;
}
);
unicode = (71,103);
},
{
glyphname = H;
lastChange = "2023-06-30 08:39:07 +0000";
layers = (
{
layerId = m01;
shapes = (
{
closed = 1;
nodes = (
(256.8,940.7,o),
(167.6,736.5,o),
(152.7,682.1,cs),
(137,627.9,o),
(108.7,530.7,o),
(110,429.6,cs),
(111.3,328.4,o),
(137,226.8,o),
(175.9,170.1,cs),
(217.9,108.7,o),
(261.8,75.8,o),
(316.5,75.4,cs),
(375.9,74.9,o),
(397,86.3,o),
(419.1,124.2,cs),
(441.4,163,o),
(482,308.1,o),
(511.5,309.1,cs),
(541.8,310,o),
(563.8,252.8,o),
(608.2,183.9,cs),
(652.6,115.2,o),
(673.3,89.4,o),
(707.7,66.4,cs),
(741.3,44,o),
(768.3,40,o),
(796.1,41.5,cs),
(823.9,43,o),
(906.8,53,o),
(963.2,112.2,cs),
(1019.2,171.1,o),
(1044.1,217.9,o),
(1050.8,237.3,cs),
(1056.9,256.7,o),
(1067.4,275.6,o),
(1052.8,269.2,cs),
(1037.9,262.7,o),
(986,237.3,o),
(930.9,213.4,cs),
(876.2,189.4,o),
(819.3,166.6,o),
(775.8,170.1,cs),
(732.2,173.5,o),
(714.7,192.9,o),
(698.7,216.8,cs),
(682.8,240.8,o),
(634.7,323,o),
(623.5,339,cs),
(611.9,354.4,o),
(569.5,427.1,o),
(502.3,430.6,cs),
(475.9,432.1,o),
(458.9,418.7,o),
(443.9,390.8,cs),
(429.4,363.4,o),
(389.9,272.7,o),
(356,273.7,cs),
(322.4,274.6,o),
(316.2,313,o),
(313.3,344.9,cs),
(310.3,377.2,o),
(301.6,524.2,o),
(325.7,580.5,cs),
(348.9,633.3,o),
(373.9,694.7,o),
(387.4,708.1,cs),
(400.3,721.1,o),
(426.5,746.5,o),
(424.8,780.3,cs),
(423.6,814.2,o),
(401.6,814.2,o),
(389.1,834.6,cs),
(375.9,855.1,o),
(356.8,939.8,o),
(304.2,940.2,cs)
);
},
{
closed = 1;
nodes = (
(586.2,614.4,o),
(618.1,587.6,o),
(667.5,560.6,cs),
(685.3,551.2,o),
(701.1,530.7,o),
(713.6,525.2,cs),
(725.1,519.3,o),
(739.3,522.8,o),
(743.8,512.3,cs),
(756.7,484.4,o),
(773.3,481.9,o),
(793.2,503.8,cs),
(813.6,526.2,o),
(809.3,558.1,o),
(794.8,587,cs),
(780.3,615.4,o),
(789.8,626.4,o),
(779.9,645.8,cs),
(774.5,655.8,o),
(765.3,661.8,o),
(763.3,665.2,cs),
(761.3,669.3,o),
(772.2,670.8,o),
(775.3,665.2,cs),
(782.4,652.8,o),
(786.2,641.8,o),
(788.2,633.9,cs),
(790.2,626.4,o),
(802.2,615.4,o),
(796.9,648.3,cs),
(791.5,676.7,o),
(772.4,712.6,o),
(749.6,724,cs),
(726.8,735,o),
(698.2,745.5,o),
(665.4,744.5,cs),
(631.8,743.5,o),
(610.2,729.5,o),
(599,709.1,cs),
(587.4,688.2,o),
(586.2,683.1,o),
(586.2,663.8,cs)
);
}
);
width = 1100;
}
);
unicode = (72,104);
},
{
glyphname = I;
lastChange = "2023-06-30 08:39:11 +0000";
layers = (
{
layerId = m01;
shapes = (
{
closed = 1;
nodes = (
(253.3,100.9,o),
(253.8,88.7,o),
(258.4,79.5,cs),
(262.8,70.3,o),
(266.9,72,o),
(268.4,64,cs),
(270.9,50,o),
(269,17,o),
(292.1,0.8,cs),
(315.1,-15.3,o),
(321.1,-8.4,o),
(334.1,-10.7,cs),
(347.2,-13,o),
(346.3,-24.6,o),
(395.3,-20.5,cs),
(444.6,-16.5,o),
(466.3,-7.2,o),
(477.3,37.9,cs),
(488.3,83,o),
(482.2,170.8,o),
(480.7,198.7,cs),
(479.3,226.4,o),
(480.2,335.1,o),
(476.3,349.6,cs),
(472.3,364,o),
(471.2,534,o),
(474.3,553.7,cs),
(477.3,573.3,o),
(479.3,588.3,o),
(489.3,604,cs),
(499.4,619.6,o),
(523,653.1,o),
(537,661.8,cs),
(551,670.4,o),
(565.2,669.9,o),
(576.6,676.2,cs),
(588.2,682.6,o),
(629.9,718.4,o),
(638.9,728.8,cs),
(647.9,739.3,o),
(669.1,753.2,o),
(680.6,786.7,cs),
(692.1,820.3,o),
(665.6,824.3,o),
(665.6,838.7,cs),
(665.6,853.1,o),
(667.5,883.3,o),
(645.9,901.2,cs),
(624.4,919.1,o),
(585.2,947.4,o),
(547,952.7,cs),
(508.9,957.8,o),
(454.6,971.2,o),
(427.5,970.5,cs),
(400.4,970,o),
(385.8,965.9,o),
(372.3,971.2,cs),
(358.8,976.3,o),
(342.7,1001.8,o),
(319.7,1005.3,cs),
(296.5,1008.7,o),
(286.9,1003,o),
(276.4,1007.6,cs),
(265.8,1012.2,o),
(269,1024.9,o),
(258.4,1024.9,cs),
(247.7,1024.9,o),
(212.7,1005.8,o),
(210.1,948.1,cs),
(207.7,890.2,o),
(242.3,853.1,o),
(260.4,833,cs),
(278.4,812.7,o),
(319.7,801.2,o),
(325.6,788.5,cs),
(331.7,775.7,o),
(243.8,201.5,o),
(255.3,154.1,c)
);
},
{
closed = 1;
nodes = (
(505.9,359.4,o),
(564.1,371.5,o),
(575.7,366.4,cs),
(587.2,361.1,o),
(767,340.8,o),
(810.6,342,cs),
(854.4,343.1,o),
(912,342.6,o),
(929.6,368,cs),
(947.2,393.4,o),
(944.1,416.6,o),
(932.7,440.9,cs),
(921,465.2,o),
(895.4,489.5,o),
(868.3,501.1,cs),
(841.2,512.6,o),
(797.1,515.5,o),
(767,512,cs),
(736.8,508.5,o),
(647.5,497,o),
(610.3,482.6,cs),
(573.2,468.1,o),
(546.6,454.2,o),
(537,443.8,cs),
(527.6,433.3,o),
(524.4,420.1,o),
(526.9,414.9,cs),
(529.5,409.7,o),
(539.6,407.4,o),
(538,399.8,cs),
(536.6,392.3,o),
(517.3,386.5,o),
(509.3,383.7,cs),
(501.3,380.7,o),
(500.3,377.3,o),
(502,371,cs)
);
},
{
closed = 1;
nodes = (
(636,207.9,o),
(638,187.6,o),
(653,157.6,cs),
(668.1,127.5,o),
(709.8,96.3,o),
(730.9,84.1,cs),
(751.9,72,o),
(751.9,66.3,o),
(765,63.3,cs),
(786.5,58.7,o),
(792.6,52.3,o),
(857.8,51.8,cs),
(923.1,51.1,o),
(933.7,76,o),
(931.2,112.5,cs),
(928.6,148.9,o),
(923.1,153.5,o),
(917.1,167.4,cs),
(911.1,181.2,o),
(897.5,186.5,o),
(884.4,204.4,cs),
(871.5,222.3,o),
(848.8,224.6,o),
(780.4,229.9,cs),
(713.2,235.1,o),
(676.6,245.5,o),
(654,226.9,cs)
);
}
);
width = 1100;
}
);
unicode = (73,105);
},
{
glyphname = J;
lastChange = "2023-06-30 08:39:21 +0000";
layers = (
{
layerId = m01;
shapes = (
{
closed = 1;
nodes = (
(402.9,954.3,o),
(325.3,898,o),
(325.3,853.3,cs),
(325.3,808.5,o),
(416.3,448.9,o),
(431.7,402.8,cs),
(436.9,387.4,o),
(468.3,320.3,o),
(476.4,291.8,cs),
(483.5,266.9,o),
(489,197.5,o),
(492.5,182.3,cs),
(515.6,83.1,o),
(555.2,-22.2,o),
(554.5,98.1,cs),
(553.8,218.4,o),
(555.1,429.4,o),
(553.3,488.2,cs),
(549.7,600.8,o),
(566.2,717.8,o),
(565.6,789.2,cs),
(565.1,860.6,o),
(499,954.3,o),
(441.8,954.3,c)
);
},
{
closed = 1;
nodes = (
(223.7,426.6,o),
(225.4,356.5,o),
(259.4,330.9,cs),
(293.4,305.4,o),
(314.3,306.7,o),
(335.7,306.9,cs),
(357,307.1,o),
(464.8,353.9,o),
(523.3,399.4,cs),
(581.8,444.9,o),
(720.3,574.1,o),
(748,547.4,cs),
(775.7,520.7,o),
(727.8,471.7,o),
(687.8,435.2,cs),
(632.1,384.5,o),
(622.6,328.5,o),
(757.2,418.7,cs),
(807.6,452.5,o),
(839.4,420.1,o),
(876.5,449.9,cs),
(901.2,469.8,o),
(892.4,550.9,o),
(860.5,584.4,cs),
(823.8,623,o),
(748,636.8,o),
(685.1,587.8,cs),
(609.4,529,o),
(532.4,481.6,o),
(487.3,475.4,cs),
(442.1,469.2,o),
(270.9,497.7,o),
(240.2,451.5,cs)
);
}
);
width = 1100;
}
);
unicode = (74,106);
},
{
glyphname = K;
lastChange = "2023-06-30 08:39:25 +0000";
layers = (
{
layerId = m01;
shapes = (
{
closed = 1;
nodes = (
(384.8,674.4,o),
(360.6,670.9,o),
(321.1,678.7,cs),
(281.5,686.6,o),
(266.4,724.1,o),
(246.6,724.1,cs),
(226.8,724.1,o),
(193,693.2,o),
(181.4,674.9,cs),
(168.1,654,o),
(167.7,630.8,o),
(168.4,611.2,cs),
(169.8,569.8,o),
(215.6,536.6,o),
(257.4,507.7,cs),
(288.3,486.3,o),
(399.6,506.5,o),
(415.4,490.9,cs),
(421.2,485.2,o),
(408.8,407.9,o),
(405.3,390.2,cs),
(399.4,359.9,o),
(389.1,308.4,o),
(370.5,296.6,cs),
(363.1,291.8,o),
(316.2,322.8,o),
(226.3,324.1,cs),
(153.7,325.1,o),
(89.2,278.8,o),
(90,209.5,cs),
(91,132,o),
(139.2,-23.7,o),
(241.7,-23.7,cs),
(306.5,-23.7,o),
(331.2,13.4,o),
(364.1,54.8,cs),
(394.7,93.3,o),
(404.9,138.5,o),
(416.5,140.4,cs),
(442.9,145,o),
(577.6,49.4,o),
(668.9,11.6,cs),
(704,-2.8,o),
(742.4,-23.5,o),
(818,-22.9,cs),
(895.6,-22.5,o),
(931.1,-18.5,o),
(947.9,-0.5,cs),
(964.5,17.7,o),
(948.7,26.6,o),
(963.1,32.2,cs),
(977.3,37.8,o),
(998.8,57.4,o),
(969.5,57.4,cs),
(920,57.4,o),
(908.2,69.3,o),
(887.6,99,cs),
(866.8,128.9,o),
(846.5,132,o),
(805.6,137.1,cs),
(764.8,142,o),
(740.5,144.2,o),
(683.3,162.4,cs),
(625.9,180.5,o),
(458,244.3,o),
(457.6,264.1,cs),
(457.3,283.9,o),
(494.6,408.2,o),
(498.1,451.6,cs),
(501.6,495,o),
(498.7,511.7,o),
(506,523.2,cs),
(513.4,534.7,o),
(635.9,584.3,o),
(680.8,579.8,cs),
(725.6,575.4,o),
(760.3,544.1,o),
(754.4,507.7,cs),
(748.5,471.5,o),
(726.5,433.2,o),
(716.9,412.6,cs),
(706.2,390.2,o),
(699.9,361.8,o),
(736.1,401.2,cs),
(772.3,440.3,o),
(686.6,299,o),
(668.5,278.9,cs),
(646.6,255,o),
(645.6,225.3,o),
(707.3,279.5,cs),
(763.6,328.7,o),
(927.7,491.6,o),
(932.4,618.8,cs),
(937.4,746.1,o),
(759.7,740.5,o),
(667.8,716.9,cs),
(576,693.3,o),
(528.6,669.6,o),
(520.9,680.7,cs),
(513,691.6,o),
(512,914.5,o),
(505.1,945.3,cs),
(498.1,975.9,o),
(489.8,1025,o),
(471.5,1025,cs),
(453.2,1025,o),
(413.4,969.8,o),
(406.3,942.4,cs),
(399.4,914.9,o),
(413.4,696.4,o),
(416.5,672.4,cs)
);
},
{
closed = 1;
nodes = (
(181.9,162.9,o),
(184.7,204.7,o),
(204.6,218.5,cs),
(224.5,232.2,o),
(264.8,226,o),
(284.1,214.5,cs),
(303.3,202.8,o),
(328.3,211.2,o),
(325.9,193.7,cs),
(323.3,175,o),
(291.7,136.2,o),
(282.8,125.5,cs),
(273.8,114.8,o),
(247.6,66.6,o),
(213.3,67.8,cs),
(178.7,68.9,o),
(182.3,124.5,o),
(182.2,141.8,cs)
);
},
{
closed = 1;
nodes = (
(989.6,90.3,o),
(992.9,73.5,o),
(999.2,68.3,cs),
(1007.3,61.6,o),
(1018.3,68.1,o),
(1025.3,80.1,cs),
(1032.1,92,o),
(1031.3,107.2,o),
(1023.9,111.2,cs),
(1016.4,115.1,o),
(1003.6,111.5,o),
(997.6,102.4,cs)
);
}
);
width = 1100;
}
);
unicode = (75,107);
},
{
glyphname = L;
lastChange = "2023-06-30 08:39:29 +0000";
layers = (
{
layerId = m01;
shapes = (
{
closed = 1;
nodes = (
(69.3,994,o),
(40,978.4,o),
(40,947.3,cs),
(40,916.1,o),
(69.9,879.8,o),
(101.4,879.8,cs),
(119.1,879.8,o),
(122.3,889.2,o),
(125.5,891.4,cs),
(128.7,893.5,o),
(141.4,885.1,o),
(148.1,889.6,cs),
(154.8,894.1,o),
(156.3,914.5,o),
(161.9,924.6,cs),
(167.5,934.8,o),
(181.9,940.3,o),
(181.9,947.5,cs),
(181.9,954.5,o),
(164.9,962.1,o),
(156.9,973.7,cs),
(149,985.3,o),
(134.4,994,o),
(102.8,994,cs)
);
},
{
closed = 1;
nodes = (
(411.3,857.4,o),
(382.7,882,o),
(357.2,882,cs),
(342.9,882,o),
(338.4,898,o),
(326.1,898,cs),
(313.8,898,o),
(225.5,884.7,o),
(225.5,749.4,cs),
(225.5,717.4,o),
(300.2,640.6,o),
(394.3,640.6,cs),
(488.4,640.6,o),
(584.2,642.1,o),
(587.7,634.3,cs),
(589.3,630.6,o),
(595.9,565.1,o),
(607.2,501.9,cs),
(618.7,436.7,o),
(635,399.5,o),
(635,327.3,cs),
(635,275.2,o),
(616.8,251.1,o),
(597.3,229,cs),
(577.7,206.9,o),
(552.7,193.1,o),
(535,193.1,cs),
(517.3,193.1,o),
(506,206.2,o),
(489,206.2,cs),
(472.1,206.2,o),
(441.8,173.8,o),
(441.8,154.8,cs),
(441.8,146.3,o),
(447.7,145.4,o),
(447.7,140,cs),
(447.7,134.5,o),
(435.2,126.1,o),
(435.2,106.8,cs),
(435.2,52.9,o),
(472.1,5.7,o),
(570.4,5.7,cs),
(691.5,5.7,o),
(755,132.1,o),
(755,177.5,cs),
(755,190.8,o),
(761.2,197.4,o),
(761.2,252.8,cs),
(761.2,427.5,o),
(674.3,525.8,o),
(674.3,652.4,cs),
(674.3,734.1,o),
(708.3,759.2,o),
(750.8,791.7,cs),
(804.1,832.3,o),
(843.6,825.9,o),
(860.7,844.2,cs),
(873.1,857.4,o),
(871.5,871.8,o),
(871.5,888.9,cs),
(871.5,946.7,o),
(922.1,947.3,o),
(922.1,960.9,cs),
(922.1,966.6,o),
(907.6,966.4,o),
(897,968.4,cs),
(882.5,970.9,o),
(868.9,974.7,o),
(851.8,974.7,cs),
(834.6,974.7,o),
(774.9,967.8,o),
(730.6,958.3,cs),
(686.3,948.7,o),
(557.4,857.4,o),
(459.3,857.4,cs)
);
}
);
width = 1100;
}
);
unicode = (76,108);
},
{
glyphname = M;
lastChange = "2023-06-30 08:39:32 +0000";
layers = (
{
background = {
shapes = (
{
closed = 0;
nodes = (
(204.6,800,l),
(344.6,790,o),
(544.6,710,o),
(574.6,590,cs),
(604.6,470,o),
(544.6,270,o),
(484.6,210,cs),
(424.6,150,o),
(194.6,120,o),
(84.6,170,cs)
);
}
);
};
layerId = m01;
shapes = (
{
closed = 1;
nodes = (
(156.2,1023.7,o),
(33,962.5,o),
(33,902.4,cs),
(33,842.4,o),
(167.2,782.9,o),
(167.2,766,cs),
(167.2,749.1,o),
(78.5,596.6,o),
(78.5,395.4,cs),
(78.5,194.2,o),
(177.1,-23.1,o),
(446.1,-23.1,cs),
(585.9,-23.1,o),
(693.6,87.2,o),
(744.4,197.4,cs),
(795.2,307.5,o),
(803.8,356,o),
(762.1,457.8,cs),
(720.4,559.5,o),
(676.7,595.7,o),
(611.9,595.7,cs),
(564.9,595.7,o),
(541.1,541.3,o),
(525.4,529.4,cs),
(509.6,517.4,o),
(484,507.1,o),
(464.7,479.4,cs),
(445.3,451.7,o),
(406.1,314.3,o),
(486.2,258.2,cs),
(598,179.7,o),
(767.3,166.1,o),
(873.1,231.3,cs),
(1001.7,310.7,o),
(1019.5,410.7,o),
(1019.5,502.5,cs),
(1019.5,594.3,o),
(1006.5,658.8,o),
(977.2,695.9,cs),
(947.9,733,o),
(912.3,755.2,o),
(908.5,761.4,cs),
(904.7,767.6,o),
(874.6,802.3,o),
(839.9,802.3,cs),
(805.3,802.3,o),
(784.5,757.6,o),
(784.5,722.2,cs),
(784.5,686.7,o),
(786.4,658.5,o),
(809.5,658.5,cs),
(832.6,658.5,o),
(836.4,673.5,o),
(851,673.5,cs),
(902.3,673.5,o),
(953,583,o),
(952.5,514.9,cs),
(952,446.7,o),
(900,390.8,o),
(853.8,366.1,cs),
(807.6,341.4,o),
(701.1,308.2,o),
(636.4,308.2,cs),
(571.8,308.2,o),
(553.3,350.8,o),
(553.3,386.2,cs),
(553.3,421.5,o),
(578,441.6,o),
(583.3,447.8,cs),
(588.7,454,o),
(591.1,484,o),
(601.1,484,cs),
(611,484,o),
(645.1,464.7,o),
(657.3,452.4,cs),
(669.6,440.1,o),
(685.1,425.4,o),
(685.1,393.1,cs),
(685.1,360.7,o),
(620.3,174.2,o),
(463.8,174.2,cs),
(307.4,174.2,o),
(216.4,352.1,o),
(216.4,462.4,cs),
(216.4,572.6,o),
(262.6,711.3,o),
(288.9,747.6,cs),
(315.1,783.8,o),
(358.3,835.4,o),
(358.3,851.6,cs),
(358.3,867.8,o),
(336.7,863.9,o),
(335.9,874.7,cs),
(335.2,885.5,o),
(417.5,950.5,o),
(451.3,972.5,cs),
(489.3,997.1,o),
(442.9,988.7,o),
(377.1,988.7,cs),
(281.9,988.7,o),
(259.4,1024.6,o),
(218.8,1024.2,cs)
);
}
);
width = 1100;
}
);
unicode = (77,109);
},
{
glyphname = N;
lastChange = "2023-06-30 08:39:36 +0000";
layers = (
{
layerId = m01;
shapes = (
{
closed = 1;
nodes = (
(172.3,941.8,o),
(152.2,955.1,o),
(129.7,954.5,cs),
(107.1,953.8,o),
(72.6,919.8,o),
(65.2,903.8,cs),
(57.9,887.8,o),
(66.5,883.5,o),
(68.7,878.5,cs),
(70.8,873.3,o),
(67.6,862.3,o),
(61.8,854.5,cs),
(56,846.6,o),
(66,829.2,o),
(69.7,820.4,cs),
(73.5,811.3,o),
(71.6,800.2,o),
(75,794.1,cs),
(79.6,785.5,o),
(106,770.8,o),
(132.2,723.4,cs),
(167.7,659.2,o),
(187.4,587.2,o),
(187.7,544.3,cs),
(188.1,501.6,o),
(166.8,476.2,o),
(159.6,463.7,cs),
(152.7,451,o),
(97.5,369.3,o),
(98.1,301.5,cs),
(98.7,233.5,o),
(133.4,221.8,o),
(160.3,221.8,cs),
(187,221.8,o),
(208.7,245,o),
(219.8,248.6,cs),
(230.7,251.9,o),
(245.8,256.2,o),
(254.5,264.9,cs),
(263.2,273.4,o),
(286.1,307.4,o),
(295.6,339.1,cs),
(305.2,370.9,o),
(317.3,411,o),
(317.8,470.2,cs),
(318,529.3,o),
(319.4,562.1,o),
(324.3,572.7,cs),
(329,583.2,o),
(446.4,686,o),
(452.7,691.2,cs),
(459,696.4,o),
(565.3,787.8,o),
(591.1,788.3,cs),
(617,788.5,o),
(686.6,709.8,o),
(696.9,693.1,cs),
(707,676.2,o),
(755.8,609.2,o),
(755.1,480.5,cs),
(754.7,343.1,o),
(682.5,244.4,o),
(675.1,231.6,cs),
(667.7,218.6,o),
(598.7,119.1,o),
(557.5,96.3,cs),
(516.2,73.4,o),
(451.9,43.6,o),
(387.1,44,cs),
(322.3,44.3,o),
(304.1,64.7,o),
(293.5,75.7,cs),
(282.9,86.8,o),
(245.7,74.4,o),
(273.5,43.3,cs),
(301.2,12.2,o),
(331.5,5.1,o),
(386.1,6.3,cs),
(440.6,7.5,o),
(583,7.4,o),
(668.3,47.5,cs),
(753.4,87.6,o),
(839.8,170.2,o),
(893.6,268.5,cs),
(947.2,366.7,o),
(950.7,416,o),
(950.7,480.8,cs),
(950.7,545.5,o),
(947.2,613.4,o),
(929.3,663.4,cs),
(911.3,713.2,o),
(829.2,854.8,o),
(775.4,901.1,cs),
(721.3,947.4,o),
(631.5,955.3,o),
(555.9,903.4,cs),
(480.2,851.7,o),
(441.4,814.7,o),
(415.9,787.4,cs),
(390.1,760,o),
(340.1,686,o),
(316.5,686,cs),
(307.6,686,o),
(305.2,714,o),
(306,740.2,cs),
(308.3,837.9,o),
(331.5,829.8,o),
(331.5,866.7,cs),
(331.5,903.7,o),
(314.8,939.8,o),
(200.9,941.4,cs)
);
},
{
closed = 1;
nodes = (
(215.6,427.9,o),
(217.6,386.8,o),
(217.2,377.8,cs),
(216.9,368.8,o),
(212.2,367.1,o),
(212.2,360.1,cs),
(212.2,353.2,o),
(218.6,334,o),
(218.3,319.4,cs),
(218,304.7,o),
(206.2,283.1,o),
(196.6,274.1,cs),
(187,265,o),
(173.6,253.6,o),
(161.1,253,cs),
(149.6,252.2,o),
(139.7,265.4,o),
(139.3,280.9,cs),
(138.7,296.4,o),
(160,348.1,o),
(164.7,356.9,cs),
(169,364.9,o),
(186.2,427.9,o),
(202.2,427.9,cs)
);
},
{
closed = 1;
nodes = (
(478.6,573.3,o),
(432.1,530.6,o),
(433.5,484.3,cs),
(434.2,447.6,o),
(472.4,390.7,o),
(500.8,390.1,cs),
(528.8,389.5,o),
(541.2,404.8,o),
(562.5,405,cs),
(583.7,405.2,o),
(595,391.2,o),
(605.8,371.5,cs),
(617,351.5,o),
(624.2,354.4,o),
(618.1,398.2,cs),
(612.3,439.7,o),
(601.3,495.2,o),
(575.9,526.5,cs),
(550.4,557.9,o),
(539.9,575.5,o),
(508,574.5,cs)
);
},
{
closed = 1;
nodes = (
(774.2,884.8,o),
(818.9,827,o),
(829.3,809.6,cs),
(839.9,791.3,o),
(868.7,734.5,o),
(861.1,728.6,cs),
(851.6,721.1,o),
(832.4,768.1,o),
(821.8,788.6,cs),
(807.4,816.3,o),
(769,877.5,o),
(771.8,881.4,cs)
);
}
);
width = 1100;
}
);
unicode = (78,110);
},
{
glyphname = O;
lastChange = "2023-06-30 08:39:39 +0000";
layers = (
{
layerId = m01;
shapes = (
{
closed = 1;
nodes = (
(424.2,942.3,o),
(381.6,933.8,o),
(368.7,906.3,cs),
(356,878.6,o),
(358.9,848.7,o),
(365.5,830.7,cs),
(372.1,812.7,o),
(387.5,799.3,o),
(384.3,790.8,cs),
(381,782.3,o),
(276.1,748.5,o),
(226.8,690.6,cs),
(177.5,632.5,o),
(158.7,581.9,o),
(160.1,512.1,cs),
(161.6,442,o),
(198.2,372.3,o),
(262.6,333.3,cs),
(327,294.5,o),
(365.5,285.4,o),
(391.8,282.1,cs),
(418.1,278.7,o),
(425.1,249,o),
(460.8,251.2,cs),
(496.6,253.3,o),
(581.2,295,o),
(581.2,359.9,cs),
(581.2,424.6,o),
(563.8,420.6,o),
(561.4,500.1,cs),
(559.1,579.6,o),
(547.8,693.4,o),
(555.3,700.1,cs),
(562.9,706.8,o),
(660.2,706.9,o),
(696.3,669.7,cs),
(732.5,632.5,o),
(737.3,604.1,o),
(736.8,555.2,cs),
(736.2,506.3,o),
(728.4,386.8,o),
(694.5,341.7,cs),
(660.6,296.8,o),
(592,224.7,o),
(595.8,218,cs),
(600.5,209.7,o),
(672.8,261,o),
(677,254.5,cs),
(680.4,249.3,o),
(648.8,223,o),
(651.2,217.3,cs),
(653.5,211.8,o),
(705.8,238.2,o),
(723.6,238.7,cs),
(741.4,239.3,o),
(777.6,235.4,o),
(789.8,242.7,cs),
(802,250.1,o),
(852.9,334.5,o),
(864,380.7,cs),
(875.4,427,o),
(895.5,501.2,o),
(894.6,586.2,cs),
(893.7,671.2,o),
(881.1,728.9,o),
(844.8,813.3,cs),
(820,870.9,o),
(804,887.5,o),
(796,885.9,cs),
(785.1,883.7,o),
(780,885.3,o),
(771.1,896.6,cs),
(764.5,905,o),
(731.9,866.7,o),
(676.1,860.6,cs),
(622.1,854.6,o),
(579.2,847,o),
(575.1,856,cs),
(570.9,865.1,o),
(577.3,934.8,o),
(573.1,945.6,cs),
(569,956.3,o),
(545.5,968.7,o),
(541.8,981.1,cs),
(538,993.6,o),
(561.4,1014.9,o),
(557.2,1019.9,cs),
(552.9,1025.1,o),
(515.9,1007.4,o),
(488.7,1004.7,cs),
(473,1003.1,o),
(455.5,967.7,o),
(443.5,958,cs)
);
},
{
closed = 1;
nodes = (
(434.4,674,o),
(431.3,566.6,o),
(431.7,528.9,cs),
(432.2,491.2,o),
(436.6,420.6,o),
(424.3,409.4,cs),
(412,398.2,o),
(360.5,396,o),
(319.1,445,cs),
(277.5,493.9,o),
(252.3,573.3,o),
(324.6,628,cs),
(397,682.6,o),
(410.2,683.1,o),
(424.7,677.5,cs)
);
},
{
closed = 1;
nodes = (
(571.9,221.7,o),
(532.2,189.9,o),
(514.2,181.7,cs),
(496.2,173.4,o),
(419.9,128.7,o),
(420.5,74.4,cs),
(421.1,20.1,o),
(464.1,-24.9,o),
(572.1,-24.4,cs),
(729,-23.5,o),
(763,6,o),
(799.5,27.6,cs),
(836,49.2,o),
(877.3,89.5,o),
(873.4,95.3,cs),
(869.6,101,o),
(794,52.7,o),
(789.2,61.5,cs),
(783,73.1,o),
(811,88.9,o),
(807.6,95.8,cs),
(805,101.1,o),
(677.7,94.2,o),
(644.7,95.8,cs),
(611.5,97.5,o),
(557.3,115.1,o),
(557,155.3,cs),
(556.6,195.6,o),
(579.2,208.3,o),
(575,216.2,cs)
);
}
);
width = 1100;
}
);
unicode = (79,111);
},
{
color = 2;
glyphname = P;
lastChange = "2023-06-30 08:39:43 +0000";
layers = (
{
layerId = m01;
shapes = (
{
closed = 1;
nodes = (
(357.7,991.9,o),
(303.9,998.8,o),
(260,998.8,cs),
(216.3,998.8,o),
(204.6,995.3,o),
(198.5,990.2,cs),
(192.3,985.4,o),
(180,963.9,o),
(180,910.1,cs),
(180,873.7,o),
(198.6,845.3,o),
(208.7,835.9,cs),
(218.7,826.3,o),
(256.2,806.3,o),
(303.7,806.3,cs),
(351.5,806.3,o),
(417,833.9,o),
(545.1,833.9,cs),
(734.6,833.9,o),
(743.4,802,o),
(782.2,802,cs),
(816.1,802,o),
(817.8,833.2,o),
(832.1,862.3,cs),
(846.5,891.4,o),
(861.1,892.2,o),
(865.7,902.4,cs),
(870.3,912.3,o),
(857.5,948,o),
(841.1,968.6,cs),
(817.1,998.8,o),
(783.3,1024.9,o),
(731.6,1024.9,cs),
(690.2,1024.9,o),
(652.4,991.9,o),
(487.8,991.9,c)
);
},
{
closed = 1;
nodes = (
(513.5,949.9,o),
(429,746.4,o),
(429,690.6,cs),
(429,592.7,o),
(517.6,575.4,o),
(517.6,450.3,cs),
(517.6,405.7,o),
(492.9,341.3,o),
(474.9,314.5,cs),
(468.3,304.4,o),
(422.1,308,o),
(422.1,329.7,cs),
(422.1,364.4,o),
(508.5,420.1,o),
(618.7,420.1,cs),
(702.4,420.1,o),
(757.5,363.9,o),
(757.5,278.5,cs),
(757.5,192.9,o),
(693.8,113.3,o),
(565.3,113.3,cs),
(468.3,113.3,o),
(444.2,149.7,o),
(424.9,134.4,cs),
(408.5,121.6,o),
(425.4,78.7,o),
(434.2,71.1,cs),
(443.3,63.6,o),
(451.5,59.2,o),
(466.3,42.2,cs),
(481,25.3,o),
(488.5,9.7,o),
(498.1,2,cs),
(507.5,-5.7,o),
(549.7,-25,o),
(610,-25,cs),
(642.9,-25,o),
(705.5,-15.3,o),
(725.9,-5.7,cs),
(803.4,30.7,o),
(892.7,146.3,o),
(892.7,235.9,cs),
(892.7,308,o),
(894.7,515.5,o),
(674.4,515.5,cs),
(500.8,515.5,o),
(422.2,445.9,o),
(349.9,414,cs),
(330,405.3,o),
(308,411.1,o),
(298.7,406.1,cs),
(281.9,397.2,o),
(268.3,384.9,o),
(268.3,338.8,cs),
(268.3,308,o),
(275.3,248.7,o),
(310.8,248.7,cs),
(335,248.7,o),
(359.8,265.3,o),
(385.6,262.1,cs),
(402.5,260.1,o),
(402,255.5,o),
(417,248.8,cs),
(431.8,242.2,o),
(439,243.3,o),
(448,235.9,cs),
(486.7,204.5,o),
(498.1,169,o),
(537.7,169,cs),
(577.4,169,o),
(627.8,226.6,o),
(627.8,263.3,cs),
(627.8,287.3,o),
(622.4,293.9,o),
(622.4,315.9,cs),
(622.4,347,o),
(645.8,399.7,o),
(645.8,478.8,cs),
(645.8,611,o),
(563.8,599,o),
(563.8,700.2,cs),
(563.8,733.9,o),
(574.7,770.6,o),
(597.1,799.5,cs),
(618.3,826.8,o),
(667,857.9,o),
(655.7,869.7,cs),
(655.7,869.7,o),
(599.4,896.7,o),
(599.4,896.7,c)
);
}
);
width = 1100;
}
);
unicode = (80,112);
},
{
glyphname = Q;
lastChange = "2023-06-30 08:39:48 +0000";
layers = (
{
layerId = m01;
shapes = (
{
closed = 1;
nodes = (
(176.2,908.2,o),
(179.4,770.9,o),
(214.6,747,cs),
(249.9,723,o),
(268.1,719.2,o),
(287.6,719.2,cs),
(307.2,719.2,o),
(319.1,725,o),
(328.9,725,cs),
(338.5,725,o),
(358.6,717.2,o),
(391.5,717.2,cs),
(424.4,717.2,o),
(440.8,720.4,o),
(447.6,729,cs),
(457,740.8,o),
(452.2,795.7,o),
(417.2,865.4,cs),
(382.3,935,o),
(362.5,945.8,o),
(354.9,947.2,cs),
(347.4,948.6,o),
(331.5,941.1,o),
(325.8,947,cs),
(320.2,952.9,o),
(311.5,969.8,o),
(299.1,969.8,cs),
(286.7,969.8,o),
(265.2,968,o),
(241,951.8,c)
);
},
{
closed = 1;
nodes = (
(255.8,612.9,o),
(179.9,646.3,o),
(167.2,646.3,cs),
(154.5,646.3,o),
(154.3,628.5,o),
(142.7,628.5,cs),
(131.2,628.5,o),
(129.3,644.8,o),
(121.6,644.8,cs),
(113.8,644.8,o),
(100,599.2,o),
(100,562.9,cs),
(100,526.6,o),
(129,495.9,o),
(155,481.3,cs),
(181.2,466.8,o),
(208.8,457.5,o),
(223.9,457.5,cs),
(238.9,457.5,o),
(243,463.4,o),
(251.6,463.4,cs),
(257.1,463.4,o),
(270.2,459.9,o),
(275.2,459.9,cs),
(291,459.9,o),
(322.7,476.1,o),
(329.3,466.9,cs),
(335.9,457.9,o),
(296,387.4,o),
(285.6,344.9,cs),
(275.1,302.4,o),
(254.8,231.3,o),
(254.8,177.5,cs),
(254.8,123.8,o),
(321.3,73.9,o),
(359.2,44.7,cs),
(397.1,15.6,o),
(479.6,-24.8,o),
(563.1,-24.8,cs),
(604.1,-24.8,o),
(621.8,-8.4,o),
(646,-2.6,cs),
(670.1,3.1,o),
(703.2,9,o),
(728.1,28.5,cs),
(766.2,58.5,o),
(804.2,126.4,o),
(823.3,184.2,cs),
(842.5,242,o),
(868.2,327.7,o),
(868.2,429.3,cs),
(868.2,531,o),
(835.6,619.6,o),
(835.6,662.4,cs),
(835.6,705.3,o),
(853.8,715,o),
(853.8,734.5,cs),
(853.8,743.3,o),
(851.2,758.9,o),
(859.8,792.3,cs),
(868.5,825.6,o),
(881.8,889.5,o),
(881.8,915.2,cs),
(881.8,940.8,o),
(874.8,958.7,o),
(871.4,968,cs),
(868.2,977.1,o),
(868.1,996.2,o),
(864.7,1000.8,cs),
(861.4,1005.5,o),
(847.3,1005.9,o),
(843.2,1009.6,cs),
(839,1013.3,o),
(831.5,1025,o),
(807.8,1025,cs),
(784.1,1025,o),
(765.7,1001.7,o),
(757.8,989.2,cs),
(749.8,976.7,o),
(743.6,945.1,o),
(743.6,913.5,cs),
(743.6,881.8,o),
(730.3,763.5,o),
(730.3,689.5,cs),
(730.3,615.5,o),
(744.8,582.4,o),
(758.2,552.9,cs),
(771.6,523.4,o),
(794,442.8,o),
(794,384.4,cs),
(794,326.1,o),
(776.7,323.1,o),
(773.9,304.8,cs),
(771.3,287,o),
(763.1,252.1,o),
(741.5,219.1,cs),
(719.9,186.3,o),
(696,127.6,o),
(575,127.6,cs),
(507.5,127.6,o),
(463.1,166.6,o),
(443.1,189.5,cs),
(423.1,212.5,o),
(404.8,264.5,o),
(404.8,302,cs),
(404.8,339.5,o),
(406.9,396,o),
(414.8,415.3,cs),
(422.7,434.4,o),
(443.5,496.4,o),
(463.5,516.4,cs),
(483.4,536.3,o),
(514.6,573.5,o),
(514.6,588.4,cs),
(514.6,603.4,o),
(478.4,634.2,o),
(445.5,634.2,cs),
(412.8,634.2,o),
(353.8,613.5,o),
(304,613.2,cs)
);
}
);
width = 1100;
}
);
unicode = (81,113);
},
{
glyphname = R;
lastChange = "2023-06-30 08:39:52 +0000";
layers = (
{
layerId = m01;
shapes = (
{
closed = 1;
nodes = (
(332.6,980.2,o),
(179.2,973.5,o),
(130,953,cs),
(35.4,913.6,o),
(17,935.9,o),
(17,908.2,cs),
(17,885.1,o),
(89.3,879.1,o),
(122.8,879.1,cs),
(156.4,879.1,o),
(174.7,881,o),
(179.1,876.7,cs),
(183.4,872.5,o),
(188.7,823.2,o),
(328.1,823.2,cs),
(467.5,823.2,o),
(616.4,830.8,o),
(777.4,856.4,cs),
(883.7,873.2,o),
(913.4,867.6,o),
(960,901.2,c),
(983.1,911.5,o),
(1001.6,922.6,o),
(1024.7,925.9,cs),
(1047.8,929.3,o),
(1065,936.2,o),
(1072.4,942.6,cs),
(1079.9,948.9,o),
(1129.7,965.5,o),
(1026.5,965.5,cs),
(923.2,965.5,o),
(896.5,980.2,o),
(646,980.2,cs)
);
},
{
closed = 1;
nodes = (
(543.6,872.5,o),
(546,821.6,o),
(556.1,723.9,cs),
(561.7,670,o),
(563.6,591.5,o),
(568.3,525.5,cs),
(569.3,512.2,o),
(577.2,505.6,o),
(578.5,493.4,cs),
(582.3,457.3,o),
(579.6,418.8,o),
(579.6,379.9,cs),
(579.6,310.8,o),
(576.8,301.1,o),
(554,277.2,cs),
(531.2,253.3,o),
(508.9,249.2,o),
(457.4,224.5,cs),
(438.7,215.7,o),
(425.1,216.8,o),
(405,208,cs),
(384.8,199.2,o),
(369.1,182.5,o),
(345.1,182.5,cs),
(321.1,182.5,o),
(278.8,223.3,o),
(278.8,262.9,cs),
(278.8,345.6,o),
(399.8,439.1,o),
(453.2,439.1,cs),
(522.3,439.1,o),
(533.8,447.7,o),
(474.9,475.5,cs),
(435.3,494.3,o),
(409.2,508,o),
(368,508,cs),
(280.4,508,o),
(161,388.3,o),
(161,294.8,cs),
(161,258.9,o),
(173.8,253.8,o),
(173.8,226.7,cs),
(173.8,199.8,o),
(169.7,208.5,o),
(169.7,182.6,cs),
(169.7,106.7,o),
(251.1,-1.2,o),
(357.3,-1.2,cs),
(463.6,-1.2,o),
(570.4,31.1,o),
(647.5,77.7,cs),
(724.5,124.2,o),
(717.4,210.9,o),
(717.4,265.3,cs),
(717.4,319.9,o),
(662.9,589.1,o),
(640.2,727.2,cs),
(617.6,865.4,o),
(613.6,883.7,o),
(578.5,878,c)
);
},
{
closed = 1;
nodes = (
(209.4,751.9,o),
(148.4,688.2,o),
(148.4,636,cs),
(148.4,583.9,o),
(204.8,565.4,o),
(227.5,565.4,cs),
(277.6,565.4,o),
(298.5,594.3,o),
(328.4,601.5,cs),
(358.2,608.7,o),
(381.5,612.9,o),
(381.5,621.1,cs),
(381.5,629.1,o),
(346.1,642.8,o),
(337.4,658.6,cs),
(328.7,674.2,o),
(341.7,688.2,o),
(322.8,717.1,cs),
(313,732.1,o),
(289,751.9,o),
(250.1,751.9,cs)
);
},
{
closed = 1;
nodes = (
(1031.7,28.3,o),
(1029.5,56.9,o),
(1047.8,84.3,cs),
(1063.6,108.1,o),
(1081.7,130,o),
(1081.7,145.3,cs),
(1081.7,195.9,o),
(1043.6,238.3,o),
(982.9,308.8,cs),
(900.1,405.2,o),
(666.1,475.5,o),
(589.9,475.5,c),
(582.4,476,o),
(578.1,475.4,o),
(568.3,473.3,cs),
(533.8,465.6,o),
(527.7,459.8,o),
(584.9,435.1,cs),
(642,410.3,o),
(750,344.7,o),
(820.5,251,cs),
(868.1,187.8,o),
(872.3,165.9,o),
(890.2,120.8,cs),
(901.3,92.8,o),
(907.4,77.8,o),
(926.7,60.4,cs),
(945.8,42.9,o),
(976.4,28.3,o),
(996,28.3,c)
);
}
);
width = 1100;
}
);
unicode = (82,114);
},
{
glyphname = S;
lastChange = "2023-06-30 08:39:56 +0000";
layers = (
{
layerId = m01;
shapes = (
{
closed = 1;
nodes = (
(95.1,986.2,o),
(98.4,927.3,o),
(102.8,881,cs),
(107.1,834.5,o),
(118.9,759.4,o),
(163.4,718.1,cs),
(208.2,676.6,o),
(273.5,658.8,o),
(320.1,649,cs),
(366.8,639.1,o),
(418.2,637,o),
(434.3,639.3,cs),
(450.1,641.4,o),
(321.2,558.7,o),
(290.6,528.6,cs),
(260.3,498.8,o),
(154.1,405.8,o),
(151.8,234.2,cs),
(149.4,62.6,o),
(330.5,-20,o),
(419.8,-22.5,cs),
(508.9,-25,o),
(686.7,-1.1,o),
(762.9,38.9,cs),
(839.3,78.9,o),
(916.3,96.2,o),
(920.5,125.2,cs),
(924.3,151.2,o),
(903.7,128,o),
(903.7,147.4,cs),
(903.7,174.9,o),
(909.7,194.9,o),
(890.5,196,cs),
(871.6,196.9,o),
(788.7,234.2,o),
(765.9,232.6,cs),
(742.9,231.1,o),
(740.3,228.4,o),
(741.9,216.5,cs),
(743.7,204.5,o),
(760.5,183.8,o),
(748.9,181.4,cs),
(738.3,179.1,o),
(644.8,122.2,o),
(507.6,122.1,cs),
(370.4,121.9,o),
(295.3,196.7,o),
(296.7,271.5,cs),
(298.1,346.5,o),
(351.3,429.6,o),
(399.2,463.5,cs),
(447.1,497.3,o),
(529.2,538.6,o),
(590.1,559.4,cs),
(650.9,580.5,o),
(655.4,592.8,o),
(668.5,593.9,cs),
(681.7,595.2,o),
(713,588.2,o),
(725.7,598.4,cs),
(738.4,608.4,o),
(733.3,623.1,o),
(741.9,629.5,cs),
(750.6,635.9,o),
(756.6,622.8,o),
(773.7,623.7,cs),
(790.9,624.6,o),
(789.4,640.6,o),
(795.7,643.1,cs),
(800.8,645.3,o),
(804.6,632.6,o),
(810.7,640.9,cs),
(816.8,649.2,o),
(804.5,694.4,o),
(778.5,706.7,c),
(699.9,748.3,l),
(725.3,742.1,o),
(761.6,725,o),
(776.2,729.9,cs),
(790.5,735,o),
(786.9,742.6,o),
(749.9,763.4,cs),
(713,784,o),
(644.1,824.4,o),
(605.4,833.6,cs),
(566.8,842.5,o),
(409.5,885.2,o),
(361.3,909,cs),
(313.1,932.8,o),
(240.6,985.6,o),
(211.2,999,cs),
(181.8,1012.5,o),
(150.8,1036.5,o),
(126.6,1016.3,cs)
);
},
{
closed = 1;
nodes = (
(872.9,665.1,o),
(845.9,650.2,o),
(850,628.5,cs),
(854.1,606.9,o),
(865.7,586.9,o),
(891.1,589.6,cs),
(900.9,590.7,o),
(915,587,o),
(919.2,590.7,cs),
(923.3,594.5,o),
(918.3,602.7,o),
(922.5,605.8,cs),
(926.6,609.2,o),
(932.6,597.4,o),
(936.5,608.5,cs),
(940.4,619.6,o),
(928,631.2,o),
(926.2,638.3,cs),
(924.3,645.3,o),
(924.3,659.3,o),
(919.7,664.7,cs),
(915.1,670.1,o),
(904.7,674.8,o),
(895.9,672.2,cs)
);
}
);
width = 1100;
}
);
unicode = (83,115);
},
{
glyphname = T;
lastChange = "2023-06-30 08:39:59 +0000";
layers = (
{
layerId = m01;
shapes = (
{
closed = 1;
nodes = (
(189.2,693.5,o),
(80,697.3,o),
(80,566.9,cs),
(80,513.7,o),
(138.9,497.9,o),
(191.9,497.9,cs),
(378.4,497.9,o),
(496,535.3,o),
(669.9,544.4,cs),
(843.7,553.4,o),
(1026.4,543.6,o),
(1026.4,609.5,cs),
(1026.4,647.4,o),
(967.2,692.9,o),
(922.7,692.9,cs),
(858.3,692.9,o),
(920.1,674.1,o),
(905.7,658.1,cs),
(895.8,647.3,o),
(819.2,693.5,o),
(337.3,693.5,cs)
);
},
{
closed = 1;
nodes = (
(459.8,1025,o),
(331.4,764.4,o),
(331.4,181.9,cs),
(331.4,40.3,o),
(403.5,-25,o),
(466.5,-25,cs),
(529.4,-25,o),
(679.2,141.5,o),
(679.2,196.3,cs),
(679.2,251.2,o),
(670.8,220.3,o),
(670.8,256.7,cs),
(670.8,311.9,o),
(626.1,351.2,o),
(585.4,351.2,cs),
(567.2,351.2,o),
(561.3,336.3,o),
(537,328.5,cs),
(512.8,320.7,o),
(541.9,316.8,o),
(546.3,314.9,cs),
(550.5,313.1,o),
(545.5,260.9,o),
(514.4,211.1,cs),
(483.2,161.3,o),
(468,140.1,o),
(460.3,140.1,cs),
(435.3,140.1,o),
(449.6,484.9,o),
(473.9,612.9,cs),
(498.3,741,o),
(523.6,812.4,o),
(552.6,860,cs),
(581.6,907.6,o),
(589.2,906.1,o),
(590.2,927.6,cs),
(591.1,949,o),
(581.9,955.8,o),
(582,976.3,cs),
(582.2,1004.5,o),
(538.3,1025,o),
(515.8,1025,cs)
);
},
{
closed = 1;
nodes = (
(825.8,426,o),
(781.9,438.7,o),
(758.6,439.7,cs),
(735.4,440.9,o),
(726,427.4,o),
(743.6,407.2,cs),
(778.8,366.3,o),
(766,330.3,o),
(766,280,cs),
(766,245.1,o),
(823.3,185.9,o),
(848.1,185.9,cs),
(873,185.9,o),
(928.8,239.9,o),
(928.8,286.9,cs),
(928.8,333.7,o),
(903.8,363.2,o),
(864.7,394.6,c)
);
}
);
width = 1100;
}
);
unicode = (84,116);
},
{
glyphname = U;
lastChange = "2023-06-30 08:40:03 +0000";
layers = (
{
layerId = m01;
shapes = (
{
closed = 1;
nodes = (
(240.1,784.6,o),
(197.2,738.3,o),
(183.2,691.8,cs),
(169.3,645.3,o),
(170,585.7,o),
(170,510.4,cs),
(170,435.2,o),
(189.8,353.2,o),
(208.3,312.7,cs),
(226.8,272.3,o),
(244.5,237.6,o),
(274,237.6,cs),
(303.5,237.6,o),
(328.3,291.2,o),
(336.7,339.4,cs),
(348.9,409.3,o),
(346.3,492.2,o),
(367.2,561.5,cs),
(375.2,588.2,o),
(384.2,612.2,o),
(403.6,633.4,cs),
(422.9,654.6,o),
(489,725.6,o),
(553.4,745.7,cs),
(587.7,756.5,o),
(598.7,768.8,o),
(639.4,768.8,cs),
(680.1,768.8,o),
(704.5,752.6,o),
(724.4,722.6,cs),
(744.3,692.6,o),
(754.6,658.4,o),
(754.6,604.7,cs),
(754.6,551,o),
(740.6,501.2,o),
(728.6,465.5,cs),
(716.6,429.9,o),
(709.1,372,o),
(692.5,369.7,cs),
(675.9,367.4,o),
(606.5,434.1,o),
(552.4,434.1,cs),
(498.3,434.1,o),
(425.2,357.8,o),
(425.2,275.5,cs),
(425.2,193.1,o),
(498.8,127,o),
(544.6,127,cs),
(590.3,127,o),
(708.7,180.6,o),
(719.8,180.6,cs),
(730.9,180.6,o),
(813.6,70.5,o),
(919.6,70.5,cs),
(970.5,70.5,o),
(1018.6,119,o),
(1018.6,127,cs),
(1018.6,134.9,o),
(1001.3,133.8,o),
(1003,143.8,cs),
(1004.6,153.8,o),
(996.2,157.4,o),
(989.3,159,cs),
(981.4,160.7,o),
(967.1,170,o),
(978.8,176.8,cs),
(990.4,183.6,o),
(990.5,200,o),
(911,242.3,cs),
(882.8,257.3,o),
(828.2,281,o),
(827.3,288.9,cs),
(826.4,296.8,o),
(885.3,396.3,o),
(890,427.3,cs),
(894.7,458.2,o),
(904.9,485,o),
(904.9,592.9,cs),
(904.9,700.8,o),
(892.6,786.7,o),
(838.3,848.7,cs),
(783.9,910.6,o),
(728.9,934.6,o),
(691.1,934.6,cs),
(665.4,934.6,o),
(661,900.1,o),
(632,885.1,cs),
(603.1,870,o),
(583.2,879.5,o),
(540.5,845.9,cs),
(492.4,808.1,o),
(386.5,672,o),
(380.4,672,cs),
(374.2,672,o),
(367.9,716.7,o),
(328.8,749,cs),
(306.9,767,o),
(285.3,784.6,o),
(262.9,784.6,cs)
);
},
{
closed = 1;
nodes = (
(513.2,248.4,o),
(530.7,277.8,o),
(551,293.5,cs),
(571.2,309.2,o),
(590.7,309.9,o),
(603.7,291.4,cs),
(616.6,272.9,o),
(619.7,254.3,o),
(611.4,248.1,cs),
(603,241.8,o),
(590,239.4,o),
(574,225.7,cs),
(557.9,212.1,o),
(551.4,194.9,o),
(534.9,194.9,cs),
(518.4,194.9,o),
(513.2,213,o),
(513.2,230.9,cs)
);
},
{
closed = 1;
nodes = (
(853.7,768.8,o),
(846.4,767.7,o),
(838,790.3,cs),
(835.8,796.1,o),
(830.7,805.9,o),
(821.1,816,cs),
(812.1,825.6,o),
(807.5,842.6,o),
(828.9,823.9,cs),
(838.5,815.6,o),
(844.9,806.4,o),
(847.1,797,cs)
);
}
);
width = 1100;
}
);
unicode = (85,117);
},
{
glyphname = V;
lastChange = "2023-06-30 08:40:07 +0000";
layers = (
{
layerId = m01;
shapes = (
{
closed = 1;
nodes = (
(339.3,269.6,o),
(268.4,449.7,o),
(270,557.7,cs),
(272.2,693.1,o),
(306.2,687.4,o),
(462.8,438.5,cs),
(533.2,326.6,o),
(637.5,183.7,o),
(589.7,139.3,cs),
(541.9,94.9,o),
(462.1,116.1,o),
(407.2,184.8,cs)
);
},
{
closed = 1;
nodes = (
(539.4,900,o),
(520.2,842.9,o),
(520.2,796.7,cs),
(520.2,750.5,o),
(545,731,o),
(548.5,713.8,cs),
(559.7,657.1,o),
(573.7,655.3,o),
(603.8,685.3,cs),
(620.2,701.7,o),
(649.3,702.6,o),
(674.5,725,cs),
(720.2,765.4,o),
(649.8,900,o),
(588.1,900,cs)
);
},
{
closed = 1;
nodes = (
(753.9,461.4,o),
(731.2,490.1,o),
(731.2,546.9,cs),
(731.2,568,o),
(749.8,577.1,o),
(765.8,600.1,cs),
(783,624.8,o),
(788.6,656.1,o),
(810.8,656.1,cs),
(831.5,656.1,o),
(843.1,628.2,o),
(857.1,601.2,cs),
(867.7,580.7,o),
(883.4,563.5,o),
(883.4,543.1,cs),
(883.4,496,o),
(848.3,461.4,o),
(810.2,461.4,cs)
);
}
);
width = 1100;
}
);
unicode = (86,118);
},
{
color = 2;
glyphname = W;
lastChange = "2023-06-30 08:40:10 +0000";
layers = (
{
layerId = m01;
shapes = (
{
closed = 1;
nodes = (
(375.2,977.8,o),
(352.7,959.3,o),
(346.6,941.1,cs),
(340.6,922.9,o),
(348.9,511.7,o),
(348.9,427.6,cs),
(348.9,343.5,o),
(359.1,95.6,o),
(433,34.8,cs),
(510.7,-28.9,o),
(631.1,-32.1,o),
(651.2,24.8,cs),
(671.4,81.5,o),
(658.6,450.3,o),
(658.6,523.6,cs),
(658.6,597.2,o),
(676.2,962.1,o),
(676.2,1014.4,cs),
(676.2,1066.8,o),
(647.7,1126,o),
(628.7,1126,cs),
(609.9,1126,o),
(594.4,981.6,o),
(594.4,854.6,cs),
(594.4,727.5,o),
(607.5,668.3,o),
(607.5,537.8,cs),
(607.5,407.5,o),
(604.9,111.2,o),
(571.9,111.2,cs),
(543.1,111.2,o),
(486.9,170.4,o),
(479.1,197.7,cs),
(469.8,231,o),
(448.7,441.8,o),
(448.7,517.7,cs),
(448.7,593.8,o),
(465.9,748.6,o),
(465.9,807.8,cs),
(465.9,866.9,o),
(461.5,977.8,o),
(409.5,977.8,c)
);
},
{
closed = 1;
nodes = (
(161.6,690.2,o),
(88.3,696.1,o),
(65.7,652.3,cs),
(43.3,608.5,o),
(92,563,o),
(120.5,537.8,cs),
(149,512.8,o),
(157.4,497.4,o),
(189.4,497.4,cs),
(242.7,497.4,o),
(268.6,543.6,o),
(287.4,549.3,cs),
(306.2,555.1,o),
(462.9,550.5,o),
(532.8,554,cs),
(602.7,557.4,o),
(733.3,556.4,o),
(755.7,565.9,cs),
(778.2,575.3,o),
(839.6,596.4,o),
(858.7,555.1,cs),
(877.9,513.7,o),
(846.1,500.5,o),
(818.5,486.3,cs),
(808.1,481.1,o),
(707.8,427.1,o),
(893.2,453.2,cs),
(1015.8,470.3,o),
(1055.6,537.4,o),
(1055.6,564.7,cs),
(1055.6,592,o),
(1001.2,668.7,o),
(967.9,697.2,cs),
(934.7,725.8,o),
(878.9,729.5,o),
(833.7,729.5,cs),
(788.9,729.5,o),
(662,695.1,o),
(535.2,695.1,cs),
(408.3,695.1,o),
(302.9,690.2,o),
(217.5,690.2,cs)
);
}
);
width = 1100;
}
);
unicode = (87,119);
},
{
glyphname = X;
lastChange = "2023-06-30 08:40:14 +0000";
layers = (
{
layerId = m01;
shapes = (
{
closed = 1;
nodes = (
(151.4,1025,o),
(110,939.6,o),
(110,908.2,cs),
(110,877,o),
(187.5,765.7,o),
(227.7,743.1,cs),
(267.8,720.4,o),
(483,744.1,o),
(551.4,791.8,cs),
(620,839.5,o),
(563,898.6,o),
(478,947.2,cs),
(393.1,995.7,o),
(332.1,990.9,o),
(322.1,997.6,cs),
(312.2,1004.3,o),
(295,1002.2,o),
(290.3,998.1,cs),
(285.8,993.9,o),
(273.7,997.5,o),
(266.1,1006.5,cs),
(258.5,1015.8,o),
(249.9,1014.4,o),
(235,1005.5,cs),
(198.9,983.7,o),
(216.2,1025,o),
(184.9,1025,cs)
);
},
{
closed = 1;
nodes = (
(349.9,764.1,o),
(337.2,737.6,o),
(337.2,702.9,cs),
(337.2,668.1,o),
(328.9,427.6,o),
(328.9,339.2,cs),
(328.9,250.9,o),
(331.2,95.3,o),
(337,70.2,cs),
(342.7,45,o),
(364.1,47,o),
(365,24,cs),
(368.1,-43.6,o),
(370.6,-41,o),
(388,29.3,cs),
(418.2,151.8,o),
(429.7,251.8,o),
(440,405.3,cs),
(454.3,620.5,o),
(475.3,625.9,o),
(467.4,649.8,cs),
(458.6,676.9,o),
(405.4,764.1,o),
(373.3,764.1,cs)
);
},
{
closed = 1;
nodes = (
(259.8,579.8,o),
(181,586.5,o),
(167.4,571.5,cs),
(153.9,556.3,o),
(159.1,479.4,o),
(204.5,434.2,cs),
(220.4,418.3,o),
(235,388.5,o),
(282.1,386.5,cs),
(328.3,384.5,o),
(366.1,392.5,o),
(414.5,404.8,cs),
(486,422.9,o),
(512.8,450.3,o),
(512.8,467.5,cs),
(512.8,484.7,o),
(471.5,528.9,o),
(440.1,546.1,cs),
(408.7,563.2,o),
(372.3,579.8,o),
(306.2,579.8,cs)
);
},
{
closed = 1;
nodes = (
(733.7,789.3,o),
(531.1,701.2,o),
(531.1,521.1,cs),
(531.1,434.2,o),
(572.5,394,o),
(617.2,348.7,cs),
(661.8,303.3,o),
(756.1,212,o),
(885.5,212,cs),
(964.8,212,o),
(1025.6,254.9,o),
(1025.6,296.4,cs),
(1025.6,320.6,o),
(990.2,337.3,o),
(990.2,350.5,cs),
(990.2,363.7,o),
(998.3,369.3,o),
(995.2,376.3,cs),
(992.1,383.3,o),
(991.1,379.8,o),
(917.9,379.8,cs),
(797.6,379.8,o),
(656.9,440.3,o),
(656.9,537.3,cs),
(656.9,595.9,o),
(715.1,653.1,o),
(756.9,653.1,cs),
(781.9,653.1,o),
(809.3,591.4,o),
(829.3,591.4,cs),
(849.2,591.4,o),
(913.3,633.1,o),
(913.3,689.7,cs),
(913.3,746.2,o),
(878,789.3,o),
(840.8,789.3,cs)
);
}
);
width = 1100;
}
);
unicode = (88,120);
},
{
color = 2;
glyphname = Y;
lastChange = "2023-06-30 08:40:19 +0000";
layers = (
{
layerId = m01;
shapes = (
{
closed = 1;
nodes = (
(259.2,1026,o),
(247.8,990.7,o),
(203.5,958.9,cs),
(159.3,927.3,o),
(138.7,908.2,o),
(140.1,884.2,cs),
(141.6,860.3,o),
(155.7,847.7,o),
(180.8,821.1,cs),
(205.9,794.6,o),
(241.2,799.6,o),
(245.2,788.3,cs),
(249,777,o),
(247.8,616,o),
(247.8,560.3,cs),
(247.8,504.6,o),
(255.6,303.5,o),
(269.3,290.8,cs),
(283.2,278.2,o),
(326,303.5,o),
(355.1,402.1,cs),
(366.6,440.4,o),
(363,551.7,o),
(363,640.1,cs),
(363,728.8,o),
(343.6,810.6,o),
(355.1,831.1,cs),
(366.8,851.4,o),
(467.9,905.8,o),
(474.3,932.5,cs),
(480.5,958.9,o),
(415.8,1026,o),
(331.3,1026,cs)
);
},
{
closed = 1;
nodes = (
(465.8,729.9,o),
(389.4,704.8,o),
(392.1,673.1,cs),
(394.7,641.4,o),
(447.3,587,o),
(481.6,592.1,cs),
(516.1,597,o),
(603.1,648.8,o),
(612.1,637.4,cs),
(621.2,626.1,o),
(630.1,359,o),
(614.8,357.9,cs),
(599.4,356.6,o),
(464.1,372,o),
(407.2,323.7,cs),
(350.4,275.5,o),
(304.9,214.8,o),
(307.3,125.2,cs),
(309.7,35.4,o),
(369.3,-0.2,o),
(484.5,-0.2,cs),
(557.6,-0.2,o),
(599.4,30.3,o),
(632.5,63.2,cs),
(665.4,96.2,o),
(677.9,148.7,o),
(694.3,157.4,cs),
(710.9,166.1,o),
(878.8,-54,o),
(920.9,-54,cs),
(962.6,-54,o),
(1091.5,132.3,o),
(1003,134.7,cs),
(974.3,135.6,o),
(968,113.2,o),
(938.7,113.2,cs),
(909.5,113.2,o),
(847.5,170.3,o),
(833.2,184,cs),
(820.3,196.7,o),
(751.3,244.2,o),
(739.8,271.2,cs),
(726.3,303.2,o),
(727.9,697.2,o),
(742.9,727.8,cs),
(757.7,758.3,o),
(811.7,789,o),
(811.7,843,cs),
(811.7,884.8,o),
(745.7,864.4,o),
(717.6,866.5,cs),
(689.8,868.8,o),
(647.4,892.5,o),
(617.2,873.4,cs),
(587,854.4,o),
(574.1,824.4,o),
(519.6,777,cs)
);
},
{
closed = 1;
nodes = (
(483.2,246.6,o),
(540.4,255.9,o),
(550.3,239.8,cs),
(559.4,224.7,o),
(530.4,192.8,o),
(503.2,162.6,cs),
(472.2,127.9,o),
(439.8,116.9,o),
(421,143.3,cs),
(402.1,170,o),
(405.8,201.1,o),
(438.8,220.5,cs)
);
}
);
width = 1100;
}
);
unicode = (89,121);
},
{
color = 2;
glyphname = Z;
lastChange = "2023-06-30 08:40:25 +0000";
layers = (
{
layerId = m01;
shapes = (
{
closed = 1;
nodes = (
(190.9,872.3,o),
(137.2,835.5,o),
(137.2,805.4,cs),
(137.2,775.5,o),
(295.1,624.6,o),
(352.6,584.4,cs),
(410.2,544.1,o),
(541.9,455.2,o),
(545,442.1,cs),
(548.5,427.6,o),
(451.7,350.1,o),
(375.5,299.9,cs),
(299.4,249.6,o),
(184.6,249.6,o),
(148.7,190.7,cs),
(112.8,131.8,o),
(132.7,80.1,o),
(173.1,80.1,cs),
(213.3,80.1,o),
(269.2,83.1,o),
(306.6,55.8,cs),
(343.9,28.5,o),
(382.8,-24.7,o),
(479,-24.7,cs),
(575.3,-24.7,o),
(626.9,19.8,o),
(626.9,61.5,cs),
(626.9,103.2,o),
(536.6,142,o),
(516.3,147.7,cs),
(496.2,153.5,o),
(417.2,169.2,o),
(417.2,196.5,cs),
(417.2,223.7,o),
(585.3,328.5,o),
(626.9,357.3,cs),
(668.6,386.1,o),
(714.3,449.1,o),
(734.6,462.2,cs),
(754.8,475.1,o),
(845.2,509.4,o),
(845.2,562.7,cs),
(845.2,615.9,o),
(813.7,663.6,o),
(769.2,683.5,cs),
(724.5,703.7,o),
(579.3,695,o),
(513.4,722.3,cs),
(447.4,749.6,o),
(390,850.2,o),
(390,890.4,cs),
(390,930.4,o),
(417.4,999.3,o),
(397.1,1012.4,cs),
(376.9,1025.3,o),
(308.2,916.3,o),
(250.7,894.7,cs)
);
},
{
closed = 1;
nodes = (
(910,292.7,o),
(805.1,185.1,o),
(805.1,107.4,cs),
(805.1,65.2,o),
(875.2,58.5,o),
(918.5,58.5,cs),
(961.6,58.5,o),
(1049.2,72.9,o),
(1049.2,149.1,cs),
(1049.2,225.3,o),
(967.2,292.7,o),
(937.2,292.7,cs)
);
}
);
width = 1100;
}
);
unicode = (90,122);
},
{
glyphname = bar;
lastChange = "2023-06-30 08:26:53 +0000";
layers = (
{
layerId = m01;
shapes = (
{
closed = 1;
nodes = (
(503.3,1050,o),
(460.7,1040.8,o),
(460.7,1000.4,cs),
(460.7,960,o),
(460.8,828.2,o),
(460.8,791.7,cs),
(460.8,726.4,o),
(492.7,703.2,o),
(492.7,605.5,cs),
(492.7,569.3,o),
(492.7,436.2,o),
(492.7,391.4,cs),
(492.7,346.7,o),
(468,304.5,o),
(456.5,280.4,cs),
(444.9,256.2,o),
(406.5,202.8,o),
(406.5,97.5,cs),
(406.5,-7.9,o),
(416.3,-6.1,o),
(452.5,-26.5,cs),
(488.8,-46.8,o),
(505.5,-50,o),
(532.3,-50,cs),
(559,-50,o),
(609.3,-43.8,o),
(637.9,-43.5,cs),
(676.9,-43.1,o),
(702.8,-15.9,o),
(702.8,19.6,cs),
(702.8,55.4,o),
(691.2,65.4,o),
(683.5,65.4,cs),
(675.8,65.4,o),
(665,57.6,o),
(656.2,57.6,cs),
(647.2,57.6,o),
(636.1,89,o),
(636.1,139.9,cs),
(636.1,168.4,o),
(621.7,189.7,o),
(617.3,236.6,cs),
(612.9,283.3,o),
(615.2,368.2,o),
(609.8,471.4,cs),
(604.2,574.5,o),
(601.3,593.7,o),
(601.3,715.8,cs),
(601.3,837.8,o),
(601.3,902.7,o),
(601.3,923.2,cs),
(601.3,943.6,o),
(610.6,955.4,o),
(613.8,967.9,cs),
(617,980.7,o),
(644.6,987.6,o),
(620.8,1008.6,cs),
(597.1,1029.7,o),
(590.8,1049.6,o),
(573.8,1049.6,cs),
(556.9,1049.6,o),
(556.8,1044.3,o),
(547.7,1044.3,cs),
(538.3,1044.3,o),
(533.4,1050,o),
(518.3,1050,c)
);
}
);
width = 1100;
}
);
unicode = 124;
},
{
glyphname = brokenbar;
lastChange = "2023-07-28 22:20:09 +0000";
layers = (
{
layerId = m01;
shapes = (
{
ref = bar;
},
{
closed = 0;
nodes = (
(7.4,806,l)
);
}
);
width = 1100;
}
);
unicode = 166;
},
{
export = 0;
glyphname = "C-old";
lastChange = "2023-06-30 08:07:31 +0000";
layers = (
{
layerId = m01;
shapes = (
{
closed = 1;
nodes = (
(119.6,797.5,o),
(98.3,765.4,o),
(100.1,694.1,cs),
(101.7,622.7,o),
(149.1,542.6,o),
(172.9,519.7,cs),
(196.6,496.9,o),
(287.2,434.7,o),
(288.2,417.4,cs),
(289.2,400,o),
(219.8,373.6,o),
(195,318.6,cs),
(170.1,263.7,o),
(190.3,141.1,o),
(267.2,234.4,cs),
(344.1,327.8,o),
(408.8,357.7,o),
(428.8,361.3,cs),
(457.9,366.6,o),
(511.8,362.9,o),
(534.3,385.4,cs),
(575.5,426.5,o),
(546,485,o),
(502.2,519.7,cs),
(458.4,554.6,o),
(314.7,641.5,o),
(288.2,675.4,cs),
(261.6,709.3,o),
(272.6,752.3,o),
(254.3,774.1,cs),
(236.1,796.1,o),
(193.1,797.5,o),
(158.8,797.5,cs)
);
}
);
width = 654;
}
);
},
{
export = 0;
glyphname = "D-old";
lastChange = "2023-06-30 08:07:31 +0000";
layers = (
{
layerId = m01;
shapes = (
{
closed = 1;
nodes = (
(257.4,899.5,o),
(129.2,817.9,o),
(122.8,770.4,cs),
(116.4,723.5,o),
(158.2,720.5,o),
(156.8,699.2,cs),
(155.3,677.8,o),
(100,577.3,o),
(100,435.5,cs),
(100,266.5,o),
(238.9,102.1,o),
(453.3,102.1,cs),
(678.5,102.1,o),
(779.7,361.6,o),
(779.7,469.5,cs),
(779.7,523.3,o),
(751.1,543.1,o),
(751.1,567.2,cs),
(751.1,591.4,o),
(793.4,644.1,o),
(770.7,665.4,cs),
(759.3,676,o),
(707.3,685.4,o),
(667.5,710.8,cs),
(616.7,743.3,o),
(589.4,791.6,o),
(544,791.6,cs),
(494.4,791.6,o),
(481.7,753.5,o),
(439.2,778.9,cs),
(407.3,797.9,o),
(420.8,899.5,o),
(324.2,899.5,cs)
);
},
{
closed = 1;
nodes = (
(393.8,678.1,o),
(447.5,705.1,o),
(474.5,705.1,cs),
(501.6,705.1,o),
(596.7,651.2,o),
(596.7,527.7,cs),
(596.7,404.3,o),
(525.7,305,o),
(446.2,305,cs),
(366.7,305,o),
(302.8,346,o),
(302.8,383,cs),
(302.8,419.9,o),
(328.5,434.1,o),
(349.8,434.1,cs),
(371,434.1,o),
(388.2,395.7,o),
(429.2,395.7,cs),
(470.3,395.7,o),
(531.3,444.1,o),
(531.3,488,cs),
(531.3,566.3,o),
(393.8,545.7,o),
(393.8,624.2,cs)
);
}
);
width = 879.7;
}
);
},
{
export = 0;
glyphname = "F-old";
lastChange = "2023-06-30 08:07:31 +0000";
layers = (
{
layerId = m01;
shapes = (
{
closed = 1;
nodes = (
(354.7,1000,o),
(262.2,989.9,o),
(262.2,901.7,cs),
(262.2,823.5,o),
(299.9,790.6,o),
(402.6,788.8,cs),
(486.3,787.4,o),
(547,768.6,o),
(547,744,cs),
(547,719.5,o),
(479.2,684.7,o),
(336,684.7,cs),
(192.8,684.7,o),
(105.9,661.7,o),
(100.2,582.1,cs),
(94.5,502.6,o),
(223.2,496.7,o),
(325.8,496.7,cs),
(428.5,496.7,o),
(498.1,508.3,o),
(508,480.9,cs),
(518.1,453.4,o),
(522.7,263.9,o),
(537,190.2,cs),
(551.3,116.4,o),
(586.2,61.7,o),
(602.1,209,cs),
(617.8,356.4,o),
(607.9,489.6,o),
(642.5,515.5,cs),
(677.2,541.6,o),
(771.3,530.2,o),
(808.8,550.3,cs),
(846.5,570.5,o),
(936,605.3,o),
(936,660.2,cs),
(936,715.1,o),
(842.1,712.2,o),
(771.3,712.2,cs),
(700.4,712.2,o),
(655.6,700.5,o),
(642.5,745.4,cs),
(629.5,790.3,o),
(772.7,855.5,o),
(775.6,904.6,cs),
(778.5,953.7,o),
(667.1,1000,o),
(487.8,1000,cs)
);
},
{
closed = 1;
nodes = (
(268.1,438.9,o),
(217.3,360.8,o),
(217.3,324.6,cs),
(217.3,288.4,o),
(286.9,209,o),
(331.7,209,cs),
(376.4,209,o),
(450,334.7,o),
(441.4,371,cs),
(432.8,407.1,o),
(351.8,438.9,o),
(314.3,438.9,c)
);
},
{
closed = 1;
nodes = (
(713.4,434.5,o),
(662.7,382.6,o),
(662.7,336.3,cs),
(662.7,290,o),
(703.1,272.7,o),
(726.4,272.7,cs),
(749.5,272.7,o),
(810.1,321.9,o),
(823.2,307.4,cs),
(836.3,292.8,o),
(778.3,182.8,o),
(753.8,159.8,cs),
(729.3,136.8,o),
(693,87.5,o),
(670,57.1,cs),
(647,26.9,o),
(651.2,-16.8,o),
(761.1,10.8,cs),
(871,38.4,o),
(940.4,171.6,o),
(940.4,246.7,cs),
(940.4,321.8,o),
(805.8,434.5,o),
(755.2,434.5,cs)
);
}
);
width = 1040.4;
}
);
},
{
export = 0;
glyphname = "L-old";
lastChange = "2023-06-30 08:07:31 +0000";
layers = (
{
layerId = m01;
shapes = (
{
closed = 1;
nodes = (
(24.2,943.1,o),
(0,900.8,o),
(0,876.5,cs),
(0,852.3,o),
(27.2,829.6,o),
(57.5,829.6,cs),
(87.8,829.6,o),
(127.2,864.5,o),
(127.2,900.8,cs),
(127.2,937,o),
(78.7,943.1,o),
(51.5,943.1,c)
);
},
{
closed = 1;
nodes = (
(337.5,827.5,o),
(299.6,859.3,o),
(258.8,859.3,cs),
(218,859.3,o),
(164.8,783.8,o),
(164.8,745.8,cs),
(164.8,684.5,o),
(243.7,617.1,o),
(343.6,617.1,cs),
(443.6,617.1,o),
(475.4,638.8,o),
(493.5,623.7,cs),
(511.7,608.6,o),
(542,385.9,o),
(542,327,cs),
(542,291.4,o),
(510,263.5,o),
(499.5,254.4,cs),
(469.3,228.2,o),
(398.2,252.8,o),
(367.9,213.5,cs),
(337.5,174.1,o),
(352.3,99.1,o),
(405.3,73.4,cs),
(472.1,41,o),
(534.5,31.5,o),
(587.7,101,cs),
(641,170.5,o),
(660,210.5,o),
(660,277.1,cs),
(660,472.4,o),
(572.2,516.3,o),
(572.2,611.6,cs),
(572.2,707,o),
(652.3,744.8,o),
(690.2,773.6,cs),
(728.1,802.4,o),
(764.5,829.6,o),
(776.6,872,cs),
(785.2,902.4,o),
(812,910.5,o),
(788.7,928.9,cs),
(782.5,933.8,o),
(681.4,924.9,o),
(621.4,907.2,cs),
(561.4,889.5,o),
(500.7,827.5,o),
(405.6,827.5,cs)
);
}
);
width = 898;
}
);
},
{
export = 0;
glyphname = "R-old";
lastChange = "2023-06-30 08:07:31 +0000";
layers = (
{
layerId = m01;
shapes = (
{
closed = 1;
nodes = (
(255.7,970.3,o),
(260.4,967.9,o),
(166.9,940.6,cs),
(137.6,932.1,o),
(93.6,922.7,o),
(91.3,906.4,cs),
(88.9,890,o),
(101.4,879,o),
(121.7,872.8,cs),
(141.9,866.6,o),
(234.6,875.9,o),
(242.4,869.7,cs),
(250.2,863.5,o),
(262.8,836.2,o),
(283.8,831.6,cs),
(304.8,826.9,o),
(348.5,814.3,o),
(437.3,814.3,cs),
(526.1,814.3,o),
(573,823,o),
(586.2,812.1,cs),
(599.4,801.1,o),
(616.5,550.9,o),
(616.5,459.7,cs),
(616.5,368.6,o),
(624.3,308.9,o),
(583.6,276.1,cs),
(542.8,243.3,o),
(535.5,270.3,o),
(496.6,245.4,cs),
(457.6,220.5,o),
(449,205.7,o),
(403,205.7,cs),
(357,205.7,o),
(338.4,258.7,o),
(338.4,279.8,cs),
(338.4,343.5,o),
(415.4,436.4,o),
(473.9,436.4,cs),
(499.3,436.4,o),
(518.1,459.2,o),
(515.2,481.6,cs),
(512.4,503.2,o),
(489.4,524.5,o),
(432.7,524.5,cs),
(336.3,524.5,o),
(222.2,441.8,o),
(222.2,239.7,cs),
(222.2,197.4,o),
(248,138.2,o),
(267.4,109.9,cs),
(308.8,49.7,o),
(326.5,28,o),
(449,28,cs),
(571.6,28,o),
(625.6,56.7,o),
(673.5,84.1,cs),
(723.8,112.9,o),
(756.9,148,o),
(756.9,261.8,cs),
(756.9,375.6,o),
(754.7,354.8,o),
(761,360.2,cs),
(767.2,365.6,o),
(851.9,289.9,o),
(873.7,247.8,cs),
(895.6,205.7,o),
(909.6,179.2,o),
(915.8,151.9,cs),
(922.1,124.6,o),
(940.2,55.7,o),
(1017.3,55.7,cs),
(1056.4,55.7,o),
(1060.8,99.7,o),
(1064.7,111.4,cs),
(1068.6,123.1,o),
(1095.9,136.3,o),
(1095.9,171.4,cs),
(1095.9,206.5,o),
(1066.3,295.3,o),
(968.9,370.9,cs),
(871.4,446.5,o),
(747.7,454.5,o),
(739.7,467.5,cs),
(731.7,480.5,o),
(707.7,562.6,o),
(699.2,640.6,cs),
(690.6,718.5,o),
(667.2,814.3,o),
(678.2,825.3,cs),
(689.1,836.2,o),
(876.9,840.9,o),
(911.9,856.5,cs),
(947,872.1,o),
(948.1,876.5,o),
(989.3,889.7,cs),
(1030.6,903,o),
(1078.8,899.3,o),
(1079.6,928.9,cs),
(1080.3,958.6,o),
(1013.2,964.9,o),
(912.7,966.4,cs),
(812.2,967.9,o),
(844.8,970.3,o),
(636.8,970.3,cs)
);
},
{
closed = 1;
nodes = (
(277.8,752.6,o),
(212.5,709.2,o),
(212.5,649.1,cs),
(212.5,589,o),
(253.1,572.6,o),
(287.2,572.6,cs),
(321.3,572.6,o),
(347.3,592.5,o),
(375,602,cs),
(402.6,611.4,o),
(433.4,611.5,o),
(435,620.2,cs),
(436.5,629,o),
(390.3,644.9,o),
(390.3,679.1,cs),
(390.3,713.2,o),
(370.5,752.6,o),
(327.2,752.6,cs)
);
}
);
width = 1212;
}
);
},
{
export = 0;
glyphname = "T-old";
lastChange = "2023-06-30 08:07:31 +0000";
layers = (
{
layerId = m01;
shapes = (
{
closed = 1;
nodes = (
(516.2,974.2,o),
(467.5,884.2,o),
(446.4,822.6,cs),
(425.3,761,o),
(423,709.5,o),
(406.3,692.8,cs),
(389.6,676,o),
(273.1,675.3,o),
(225.6,669.7,cs),
(177.9,664.1,o),
(101.1,666.8,o),
(100,572.2,cs),
(99.2,510.9,o),
(158.4,491.3,o),
(204.4,491.3,cs),
(250.4,491.3,o),
(363.2,517.4,o),
(372.8,498.8,cs),
(382.6,480.2,o),
(359.4,246.8,o),
(359.4,182.8,cs),
(359.4,118.8,o),
(394.6,70.2,o),
(414.6,50.9,cs),
(434.8,31.7,o),
(464.5,0,o),
(507.7,0.6,cs),
(551.1,1.3,o),
(619.4,56.5,o),
(655.5,100.1,cs),
(691.8,143.6,o),
(734.5,169.1,o),
(733.9,209.5,cs),
(733.8,220.7,o),
(725.4,236.6,o),
(724.8,254.6,cs),
(724.2,272.6,o),
(732.1,287.5,o),
(722.6,301.4,cs),
(709.6,320.7,o),
(676.5,362.4,o),
(633.3,361.8,cs),
(590.1,361.1,o),
(585.7,335.1,o),
(584,328.3,cs),
(582.5,321.3,o),
(585.2,284.6,o),
(578.6,274.1,cs),
(572.2,263.5,o),
(512.6,163.7,o),
(500.7,180.9,cs),
(488.8,198.2,o),
(495.9,495.9,o),
(508.9,510.8,cs),
(521.8,525.8,o),
(680.6,536.4,o),
(723.8,536.4,cs),
(767,536.4,o),
(1097.2,525.1,o),
(1096.6,594.7,cs),
(1096.2,664.3,o),
(1010.1,676.8,o),
(986.8,676.8,cs),
(963.5,676.8,o),
(958.9,649.4,o),
(947,650,cs),
(935.2,650.5,o),
(773.7,671.4,o),
(746.6,672.6,cs),
(719.6,673.6,o),
(559.2,671.7,o),
(551.6,693,cs),
(544.1,714.1,o),
(575.4,798.6,o),
(590.6,821.7,cs),
(605.7,844.7,o),
(657.2,898.7,o),
(633.8,937.2,cs),
(610.6,975.8,o),
(592.9,1000,o),
(555.2,986.1,cs)
);
},
{
closed = 1;
nodes = (
(778.9,426.4,o),
(822.7,371.4,o),
(823.9,350.9,cs),
(824.9,330.4,o),
(811.3,310.5,o),
(820,279.5,cs),
(828.8,248.4,o),
(880.7,200.4,o),
(907.7,201.2,cs),
(934.8,201.8,o),
(995.3,256.5,o),
(994.9,298.2,cs),
(994.3,339.7,o),
(942.9,388.3,o),
(923.5,398.8,cs),
(904,409.3,o),
(796.2,450.5,o),
(787.6,438.6,cs)
);
}
);
width = 1196.6;
}
);
},
{
export = 0;
glyphname = "X-old";
lastChange = "2023-06-30 08:07:31 +0000";
layers = (
{
layerId = m01;
shapes = (
{
closed = 1;
nodes = (
(232.1,1000,o),
(100,977.7,o),
(100,885.7,cs),
(100,793.7,o),
(266.3,755,o),
(307.8,747.7,cs),
(349.3,740.3,o),
(373,654.2,o),
(373,431.8,cs),
(373,209.2,o),
(374.4,0,o),
(407.1,0,cs),
(439.7,0,o),
(491.7,224.1,o),
(491.7,433.2,cs),
(491.7,642.4,o),
(487.3,738.8,o),
(531.8,749.2,cs),
(576.2,759.6,o),
(634.1,778.8,o),
(634.1,830.8,cs),
(634.1,882.7,o),
(502,1000,o),
(332.9,1000,cs)
);
},
{
closed = 1;
nodes = (
(331.8,578.6,o),
(162.6,572.7,o),
(162.6,486.7,cs),
(162.6,400.6,o),
(275.5,381.2,o),
(328.9,381.2,cs),
(382.3,381.2,o),
(480.1,460,o),
(542.4,460,cs),
(604.8,460,o),
(594.3,416.8,o),
(662.6,351.6,cs),
(730.9,286.4,o),
(864.4,218.1,o),
(974.2,218.1,cs),
(1084,218.1,o),
(1121,261,o),
(1121,293.7,cs),
(1121,347.8,o),
(1090.3,362,o),
(969.7,362,cs),
(876.2,362,o),
(720.4,410.9,o),
(720.4,495.4,cs),
(720.4,580.1,o),
(781.3,664.7,o),
(821.3,664.7,cs),
(876.2,664.7,o),
(874.5,606.8,o),
(928.2,606.8,cs),
(957.9,606.8,o),
(1002.4,630.5,o),
(1002.4,684,cs),
(1002.4,737.3,o),
(953.4,768.5,o),
(900,768.5,cs),
(846.6,768.5,o),
(719.1,760.9,o),
(658.2,677.9,cs),
(632.1,642.4,o),
(613.9,598.4,o),
(587.3,585,cs),
(555.1,568.7,o),
(505,578.6,o),
(425.3,578.6,cs)
);
}
